<svg width="20" height="20" viewBox="0 0 20 20" fill="none" xmlns="http://www.w3.org/2000/svg">
<path d="M11.028 0C12.153 0.00299985 12.7239 0.00899956 13.2169 0.0229989L13.4109 0.0299985C13.6349 0.0379981 13.8559 0.0479976 14.1229 0.059997C15.1868 0.109995 15.9128 0.277987 16.5498 0.524974C17.2097 0.778962 17.7657 1.12295 18.3217 1.67792C18.8303 2.17763 19.2238 2.78234 19.4746 3.44983C19.7216 4.0868 19.8896 4.81276 19.9396 5.87771C19.9516 6.1437 19.9616 6.36469 19.9696 6.58968L19.9756 6.78367C19.9906 7.27565 19.9966 7.84662 19.9986 8.97156L19.9996 9.71753V11.0275C20.002 11.7568 19.9944 12.4862 19.9766 13.2154L19.9706 13.4093C19.9626 13.6343 19.9526 13.8553 19.9406 14.1213C19.8906 15.1863 19.7206 15.9112 19.4746 16.5492C19.2238 17.2167 18.8303 17.8214 18.3217 18.3211C17.822 18.8298 17.2173 19.2232 16.5498 19.474C15.9128 19.721 15.1868 19.889 14.1229 19.939L13.4109 19.969L13.2169 19.975C12.7239 19.989 12.153 19.996 11.028 19.998L10.2821 19.999H8.97313C8.24343 20.0016 7.51373 19.9939 6.78424 19.976L6.59025 19.97C6.35287 19.961 6.11554 19.9507 5.87828 19.939C4.81433 19.889 4.08837 19.721 3.4504 19.474C2.78326 19.2231 2.17891 18.8297 1.67949 18.3211C1.17046 17.8215 0.77664 17.2168 0.525543 16.5492C0.278555 15.9122 0.110563 15.1863 0.0605658 14.1213L0.0305673 13.4093L0.0255676 13.2154C0.00713459 12.4862 -0.00119924 11.7568 0.000568769 11.0275V8.97156C-0.00219899 8.2422 0.00513476 7.51283 0.0225678 6.78367L0.0295674 6.58968C0.037567 6.36469 0.0475665 6.1437 0.0595659 5.87771C0.109563 4.81276 0.277555 4.0878 0.524543 3.44983C0.776225 2.78206 1.17073 2.17733 1.68049 1.67792C2.17962 1.16949 2.78362 0.776036 3.4504 0.524974C4.08837 0.277987 4.81333 0.109995 5.87828 0.059997C6.14427 0.0479976 6.36626 0.0379981 6.59025 0.0299985L6.78424 0.0239988C7.51339 0.0062324 8.24276 -0.00143463 8.97213 0.000999879L11.028 0ZM10.0001 4.99976C8.67406 4.99976 7.40236 5.52651 6.46472 6.46415C5.52708 7.40179 5.00032 8.67349 5.00032 9.99951C5.00032 11.3255 5.52708 12.5972 6.46472 13.5349C7.40236 14.4725 8.67406 14.9993 10.0001 14.9993C11.3261 14.9993 12.5978 14.4725 13.5354 13.5349C14.4731 12.5972 14.9998 11.3255 14.9998 9.99951C14.9998 8.67349 14.4731 7.40179 13.5354 6.46415C12.5978 5.52651 11.3261 4.99976 10.0001 4.99976ZM10.0001 6.99966C10.394 6.99959 10.7841 7.07712 11.1481 7.22782C11.5121 7.37851 11.8428 7.59943 12.1214 7.87794C12.4001 8.15646 12.6211 8.48712 12.7719 8.85106C12.9227 9.21499 13.0004 9.60507 13.0004 9.99901C13.0005 10.393 12.923 10.7831 12.7723 11.147C12.6216 11.511 12.4007 11.8418 12.1222 12.1204C11.8436 12.399 11.513 12.62 11.149 12.7708C10.7851 12.9216 10.395 12.9993 10.0011 12.9994C9.20547 12.9994 8.44245 12.6833 7.87986 12.1207C7.31728 11.5581 7.00123 10.7951 7.00123 9.99951C7.00123 9.2039 7.31728 8.44088 7.87986 7.87829C8.44245 7.31571 9.20547 6.99966 10.0011 6.99966M15.2508 3.49983C14.9193 3.49983 14.6014 3.63152 14.367 3.86593C14.1326 4.10034 14.0009 4.41826 14.0009 4.74977C14.0009 5.08127 14.1326 5.3992 14.367 5.63361C14.6014 5.86802 14.9193 5.99971 15.2508 5.99971C15.5823 5.99971 15.9003 5.86802 16.1347 5.63361C16.3691 5.3992 16.5008 5.08127 16.5008 4.74977C16.5008 4.41826 16.3691 4.10034 16.1347 3.86593C15.9003 3.63152 15.5823 3.49983 15.2508 3.49983Z" fill="#D92C6B"/>
</svg>
