<svg width="21" height="20" viewBox="0 0 21 20" fill="none" xmlns="http://www.w3.org/2000/svg">
<path d="M11.0283 0C12.1533 0.00299993 12.7243 0.00899978 13.2172 0.0229994L13.4112 0.0299992C13.6352 0.037999 13.8562 0.0479988 14.1232 0.0599985C15.1872 0.109997 15.9132 0.277993 16.5502 0.524987C17.2101 0.778981 17.7661 1.12297 18.3221 1.67796C18.8308 2.17768 19.2243 2.7824 19.4751 3.44992C19.7221 4.0869 19.8901 4.81288 19.9401 5.87786C19.9521 6.14385 19.9621 6.36484 19.9701 6.58984L19.9761 6.78383C19.9911 7.27582 19.9971 7.84681 19.9991 8.97178L20.0001 9.71776V11.0277C20.0025 11.7571 19.9948 12.4865 19.9771 13.2157L19.9711 13.4097C19.9631 13.6347 19.9531 13.8557 19.9411 14.1217C19.8911 15.1866 19.7211 15.9116 19.4751 16.5496C19.2243 17.2171 18.8308 17.8218 18.3221 18.3216C17.8224 18.8302 17.2177 19.2237 16.5502 19.4745C15.9132 19.7215 15.1872 19.8895 14.1232 19.9395L13.4112 19.9695L13.2172 19.9755C12.7243 19.9895 12.1533 19.9965 11.0283 19.9985L10.2823 19.9995H8.97335C8.24363 20.0021 7.51391 19.9944 6.7844 19.9765L6.59041 19.9705C6.35302 19.9615 6.11569 19.9512 5.87843 19.9395C4.81445 19.8895 4.08847 19.7215 3.45048 19.4745C2.78333 19.2236 2.17896 18.8301 1.67953 18.3216C1.17049 17.8219 0.776659 17.2172 0.525556 16.5496C0.278562 15.9126 0.110566 15.1866 0.0605673 14.1217L0.030568 13.4097L0.0255683 13.2157C0.00713476 12.4865 -0.00119927 11.7571 0.000568783 11.0277V8.97178C-0.00219904 8.2424 0.00513489 7.51301 0.0225683 6.78383L0.0295681 6.58984C0.0375679 6.36484 0.0475677 6.14385 0.0595674 5.87786C0.109566 4.81288 0.277562 4.0879 0.524556 3.44992C0.776244 2.78213 1.17076 2.17738 1.68053 1.67796C2.17967 1.16952 2.78369 0.776055 3.45048 0.524987C4.08847 0.277993 4.81345 0.109997 5.87843 0.0599985C6.14442 0.0479988 6.36641 0.037999 6.59041 0.0299992L6.7844 0.0239993C7.51358 0.00623255 8.24296 -0.00143466 8.97235 0.000999903L11.0283 0ZM10.0003 4.99988C8.67427 4.99988 7.40254 5.52665 6.46488 6.46431C5.52722 7.40197 5.00045 8.67371 5.00045 9.99976C5.00045 11.3258 5.52722 12.5975 6.46488 13.5352C7.40254 14.4729 8.67427 14.9996 10.0003 14.9996C11.3264 14.9996 12.5981 14.4729 13.5358 13.5352C14.4734 12.5975 15.0002 11.3258 15.0002 9.99976C15.0002 8.67371 14.4734 7.40197 13.5358 6.46431C12.5981 5.52665 11.3264 4.99988 10.0003 4.99988ZM10.0003 6.99983C10.3943 6.99976 10.7844 7.07729 11.1484 7.22799C11.5124 7.37869 11.8431 7.59961 12.1217 7.87813C12.4004 8.15666 12.6214 8.48733 12.7722 8.85127C12.923 9.21521 13.0007 9.6053 13.0008 9.99926C13.0008 10.3932 12.9233 10.7833 12.7726 11.1473C12.6219 11.5113 12.401 11.8421 12.1224 12.1207C11.8439 12.3993 11.5133 12.6203 11.1493 12.7711C10.7854 12.922 10.3953 12.9996 10.0013 12.9997C9.20569 12.9997 8.44265 12.6836 7.88006 12.121C7.31746 11.5584 7.0014 10.7954 7.0014 9.99976C7.0014 9.20413 7.31746 8.44108 7.88006 7.87849C8.44265 7.31589 9.20569 6.99983 10.0013 6.99983M15.2512 3.49991C14.9197 3.49991 14.6017 3.63161 14.3673 3.86602C14.1329 4.10044 14.0012 4.41837 14.0012 4.74988C14.0012 5.0814 14.1329 5.39933 14.3673 5.63375C14.6017 5.86816 14.9197 5.99985 15.2512 5.99985C15.5827 5.99985 15.9006 5.86816 16.1351 5.63375C16.3695 5.39933 16.5012 5.0814 16.5012 4.74988C16.5012 4.41837 16.3695 4.10044 16.1351 3.86602C15.9006 3.63161 15.5827 3.49991 15.2512 3.49991Z" fill="#E4DDCB"/>
</svg>
