<svg width="33" height="30" viewBox="0 0 33 30" fill="none" xmlns="http://www.w3.org/2000/svg">
<path fill-rule="evenodd" clip-rule="evenodd" d="M14.6618 1.27589C14.6584 2.06175 14.63 2.49146 14.5881 2.39474C14.5507 2.30835 14.5174 1.80866 14.5144 1.28436C14.5087 0.320693 14.4552 0.152806 14.2023 0.307595C13.9998 0.43156 14.1207 3.01854 14.3305 3.04804C14.4798 3.06894 14.5013 3.1077 14.4613 3.28353C14.3244 3.88748 14.2577 4.08288 14.1887 4.08288C14.1467 4.08288 14.1124 4.22418 14.1124 4.39696V4.7109H14.4636H14.8147L14.9082 4.26492C15.0101 3.77873 15.0864 3.81021 15.1807 4.37725L15.2363 4.7109H15.6257H16.0153V4.41575C16.0153 4.21214 15.969 4.09214 15.8664 4.02864C15.7847 3.9781 15.6936 3.80175 15.664 3.63677C15.6345 3.47192 15.592 3.27506 15.5696 3.19952C15.5382 3.09395 15.5759 3.06219 15.7323 3.06219H15.9359V1.69277C15.9359 0.333923 15.9085 0.190643 15.6657 0.282988C15.5584 0.323736 15.5395 0.500752 15.5395 1.46561C15.5395 2.20212 15.5116 2.58327 15.4602 2.55178C15.4128 2.52268 15.381 2.00142 15.381 1.25168V0H15.0241H14.6675L14.6618 1.27589ZM17.1251 0.0744843C17.1251 0.115365 16.9378 0.159553 16.7089 0.172518L16.2927 0.196332L16.2707 1.31519L16.2486 2.43404H17.5216H18.7945L18.7725 1.31519L18.7504 0.196332L18.3343 0.172518C18.1053 0.159553 17.918 0.115365 17.918 0.0744843C17.918 0.0334716 17.7397 0 17.5216 0C17.3036 0 17.1251 0.0334716 17.1251 0.0744843ZM17.918 0.902941C17.918 0.991978 17.8212 1.02069 17.5216 1.02069C17.2221 1.02069 17.1251 0.991978 17.1251 0.902941C17.1251 0.814036 17.2221 0.785195 17.5216 0.785195C17.8212 0.785195 17.918 0.814036 17.918 0.902941ZM17.918 1.72743C17.918 1.77056 17.7397 1.80588 17.5216 1.80588C17.3036 1.80588 17.1251 1.77056 17.1251 1.72743C17.1251 1.68417 17.3036 1.64884 17.5216 1.64884C17.7397 1.64884 17.918 1.68417 17.918 1.72743ZM16.2531 2.94431V3.21923H16.6891C16.9289 3.21923 17.1251 3.25456 17.1251 3.29769C17.1251 3.34082 16.9289 3.37614 16.6891 3.37614H16.2531V3.64696C16.2531 3.91751 16.2532 3.91764 16.663 3.94132C17.2506 3.97532 17.259 4.14691 16.6745 4.17695C16.2179 4.20036 16.2131 4.20314 16.1885 4.45583L16.1637 4.7109H17.5166H18.8695V4.44009V4.16914L18.4135 4.14559C17.8431 4.11622 17.8153 3.97321 18.3738 3.94132L18.7901 3.91764V3.64696V3.37614H18.3541C17.7756 3.37614 17.792 3.23352 18.3738 3.20349C18.8246 3.1802 18.83 3.17703 18.8546 2.92474L18.8795 2.66953H17.5663H16.2531V2.94431ZM10.1086 3.30682C9.71614 3.47999 9.20421 3.6963 8.97096 3.78759C8.47106 3.98326 8.43927 4.03763 8.60078 4.42064C8.74065 4.75218 8.84285 4.77282 9.27154 4.55625C9.62703 4.37672 9.63652 4.38373 9.90677 5.02498C10.0068 5.26259 10.1526 5.59823 10.2307 5.77088C10.309 5.94367 10.4466 6.25602 10.5368 6.46493C10.6268 6.67396 10.728 6.83272 10.7614 6.8179C10.7948 6.80295 10.956 6.73971 11.1195 6.67727C11.283 6.61495 11.4168 6.53756 11.4168 6.50541C11.4168 6.43582 10.9663 5.33046 10.6735 4.68153C10.4057 4.08817 10.3983 4.11913 10.867 3.8839C11.088 3.77304 11.2573 3.65767 11.2432 3.62738C11.2292 3.59721 11.1661 3.44004 11.1032 3.27811C10.9636 2.91971 10.9875 2.91891 10.1086 3.30682ZM22.1992 4.68114C21.3772 6.46056 21.4084 6.31754 21.8006 6.51573C22.1967 6.71576 22.2149 6.70584 22.4366 6.16487C22.6358 5.67867 22.6229 5.68529 23.0373 5.85675C23.5059 6.0507 23.9855 6.02913 24.2301 5.80303C24.7582 5.31485 24.916 4.52569 24.5712 4.09796C24.406 3.89316 23.1456 3.21579 22.9389 3.22082C22.9027 3.22161 22.5699 3.87888 22.1992 4.68114ZM23.759 4.5065C24.1964 4.87906 23.7871 5.33205 23.2224 5.10053C22.9484 4.98807 22.9527 5.01678 23.1523 4.62928C23.3377 4.26955 23.4534 4.24614 23.759 4.5065ZM6.4064 5.34224C5.22585 5.95967 5.44494 7.75881 6.77551 8.37241C8.15311 9.00771 9.36145 7.6625 8.69202 6.23883C8.27054 5.34237 7.20514 4.92457 6.4064 5.34224ZM25.7319 5.57839C24.0994 6.38488 24.3986 8.78122 26.127 8.74391C27.089 8.72301 27.9015 7.86663 27.9059 6.86897C27.9108 5.76255 26.7516 5.07446 25.7319 5.57839ZM7.45028 6.08377C8.27628 6.50673 8.14096 7.70708 7.28022 7.59277C6.47493 7.48574 6.1487 6.44072 6.80944 6.08496C7.07569 5.94168 7.17255 5.94155 7.45028 6.08377ZM26.8226 6.39243C27.5457 7.05604 26.5263 8.27597 25.7731 7.64834C25.4546 7.38295 25.4407 6.99981 25.7357 6.6168C26.079 6.17109 26.4891 6.08642 26.8226 6.39243ZM17.649 6.75175C16.5272 7.30383 16.277 8.15306 16.9281 9.19822C17.1095 9.48955 17.2045 9.73893 17.2045 9.92441V10.2071H16.6911H16.1777L16.2551 10.0056C16.4385 9.52778 16.3372 9.07651 16.0086 8.90822C15.7886 8.79551 15.7844 8.78148 15.83 8.29885C15.8901 7.66104 15.6767 7.35437 15.1675 7.3463C14.9313 7.34246 14.7809 7.27909 14.5675 7.09361C13.8369 6.45818 12.8439 6.85468 12.8439 7.78183C12.8439 8.0078 12.7902 8.25229 12.7161 8.36434C12.5407 8.62947 12.6246 9.00665 12.9441 9.38953C13.2959 9.81077 13.3329 10.6236 13.002 10.6618C12.8246 10.6825 12.7667 10.612 12.4609 10.0013C11.6855 8.45298 10.6314 8.12515 10.4397 9.37273C10.3802 9.75904 10.3562 9.77915 10.1357 9.62621C9.83877 9.42022 9.53071 9.46825 9.22853 9.76737C8.79302 10.1988 8.87772 10.5519 9.57092 11.1941C9.92013 11.5177 9.90664 11.5637 9.35437 11.9351C8.93062 12.2201 8.24543 12.9455 8.24543 13.1091C8.24543 13.1429 7.96729 13.1864 7.62743 13.206C6.51728 13.2696 6.32304 13.5179 6.31035 14.8907C6.29979 16.0356 6.35323 16.0798 8.08338 16.3577L8.67452 16.4527L9.08171 17.2515C9.74032 18.5438 10.5367 19.4144 11.6348 20.0422C12.342 20.4466 12.375 20.505 12.17 20.9908C12.1046 21.1459 12.0511 21.4152 12.0511 21.5894C12.0511 22.0471 11.9416 21.9816 11.6285 21.3367C11.1816 20.4164 10.5956 19.9626 9.75034 19.8822C9.24603 19.8341 9.18471 19.96 9.53579 20.3231C10.0071 20.8105 10.0983 21.0676 10.0261 21.7051C9.81366 23.5802 10.7385 24.3085 13.1808 24.1897C13.2606 24.1857 13.3196 24.121 13.3196 24.0374C13.3196 23.9095 13.2307 23.8863 12.5862 23.846C10.8975 23.7401 10.208 23.1047 10.4061 21.8368C10.4763 21.388 10.4691 21.2139 10.3654 20.8528C10.2261 20.3676 10.2573 20.3315 10.5934 20.5901C10.9564 20.8694 11.0859 21.0505 11.2687 21.5356C11.5751 22.348 12.8518 23.0743 12.6427 22.3174C12.4346 21.5643 12.5165 21.0783 12.9632 20.4135C13.4845 19.6378 13.5902 19.3378 13.5335 18.7943C13.4838 18.3167 13.5486 18.2335 13.8288 18.4152C14.3698 18.7662 14.4719 19.5803 14.0794 20.4141C13.636 21.3561 14.0167 22.2985 14.8406 22.2985C15.6528 22.2985 15.8904 21.8594 15.8129 20.5005C15.7474 19.3509 15.93 19.0135 16.8123 18.6551C17.2284 18.4859 17.2903 18.5663 17.1533 19.0987C17.0383 19.5461 17.0395 19.5555 17.3191 20.3575C17.5228 20.9416 17.6009 21.2991 17.6009 21.6478C17.6009 22.2024 17.718 22.3771 18.0902 22.3771C18.635 22.3771 19.026 21.6898 19.0283 20.7282C19.0298 20.1022 19.2678 19.5457 19.6921 19.1769C20.1574 18.7723 20.2847 18.8553 20.0855 19.4339C19.9771 19.7493 19.9694 19.9249 20.0369 20.5529C20.1008 21.146 20.0932 21.4156 19.9996 21.8755C19.8552 22.586 19.8885 22.6911 20.2575 22.6911C20.8284 22.6911 21.378 22.2449 21.5249 21.6623C21.585 21.4238 22.1203 20.8491 22.1971 20.9407C22.3275 21.0959 22.1625 22.9121 21.9975 23.1373C21.7525 23.4717 21.0286 23.7978 20.3732 23.8691C19.7636 23.9354 19.7 23.9625 19.7648 24.1299C19.923 24.5378 21.4931 24.1894 22.1096 23.6096C22.5054 23.2374 22.5957 22.9572 22.5957 22.0996C22.5957 21.3054 22.6314 21.1872 23.0183 20.6985C23.2461 20.4108 23.2514 20.3883 23.1159 20.2902C22.6541 19.9557 21.5076 20.6772 21.1401 21.5334C20.7567 22.4268 20.2882 22.5435 20.4438 21.7068C20.4962 21.425 20.5162 21.0235 20.4883 20.8145L20.4373 20.4345L21.0896 20.0905C22.2767 19.4649 23.3659 18.2938 24.0039 16.957L24.2487 16.4444L25.1389 16.3051C26.6239 16.0727 26.7706 15.908 26.6473 14.6107C26.5366 13.4449 26.3661 13.2709 25.2714 13.2066C24.8351 13.181 24.6571 13.1406 24.6571 13.0673C24.6571 13.0106 24.4569 12.7501 24.2125 12.4885C23.968 12.2269 23.8166 12.0129 23.8763 12.0129C24.4006 12.0129 24.6068 11.0607 24.1314 10.8352C23.9558 10.7519 23.863 10.6378 23.8142 10.4451C23.6845 9.93301 23.0194 9.82955 22.8692 10.2982C22.8359 10.402 22.7452 10.4426 22.5471 10.4426C22.2313 10.4426 21.8821 10.7293 21.8821 10.9886C21.8821 11.1885 21.8938 11.1892 21.3349 10.9562C20.9463 10.7943 20.0285 10.5434 19.2839 10.3959C19.1341 10.3663 19.1174 10.3351 19.1847 10.2103C19.4193 9.77637 19.2009 8.75264 18.8214 8.5063C18.4858 8.28854 18.37 8.50842 18.6298 8.86986C18.7765 9.07386 18.8944 10.2085 18.7807 10.321C18.5857 10.5142 18.4004 10.2437 18.441 9.82545C18.4744 9.48399 18.4375 9.2313 18.2804 8.72102C18.0368 7.93027 18.0265 7.53655 18.2377 7.07549C18.5031 6.49615 18.345 6.40923 17.649 6.75175ZM3.89314 7.42251C3.5808 7.77482 3.57145 7.74426 4.12759 8.19182C4.64005 8.6042 4.63911 8.59454 4.21803 9.06526C3.9244 9.3935 3.97155 9.40474 3.30239 8.84671L2.94209 8.54625L2.7023 8.80741C2.36805 9.1715 2.34307 9.13155 3.50826 10.1018C4.08604 10.583 4.66583 11.0685 4.79662 11.1807C5.09947 11.4403 5.10308 11.4398 5.36585 11.0986L5.58641 10.8123L5.12044 10.3995L4.65448 9.98686L4.95319 9.62581C5.31803 9.18499 5.27728 9.1846 5.83182 9.63203L6.28697 9.99916L6.51301 9.74859C6.8045 9.42551 6.79782 9.32788 6.46732 9.07823C6.31769 8.96525 5.74445 8.48407 5.19338 8.00886C4.02486 7.0014 4.19746 7.07919 3.89314 7.42251ZM14.2989 7.31839C14.357 7.37594 14.4474 7.50241 14.4998 7.59939C14.5802 7.74809 14.6548 7.77363 14.9759 7.76238C15.5079 7.74373 15.5689 7.7985 15.5025 8.23482C15.3919 8.96128 15.4049 9.05693 15.6285 9.16409C16.008 9.34614 16.0479 9.45436 15.8926 9.88195C15.7234 10.3479 15.7692 10.493 16.133 10.6435C16.4843 10.7889 16.5091 11.1347 16.2135 11.7636C15.9143 12.4003 15.8197 12.3144 15.4066 11.0315C14.7718 9.05944 14.1212 7.60336 13.852 7.55203C13.6238 7.5085 13.6894 7.79532 14.1227 8.73557C14.3464 9.22098 14.72 10.2012 14.9529 10.9137L15.3764 12.2092L15.2004 12.3448C14.9523 12.5359 14.9289 12.5277 14.5385 12.1111C14.1096 11.6533 14.0491 11.4554 14.2339 11.1154C14.4064 10.7982 14.3494 10.6192 14.0564 10.558C13.684 10.4802 13.5981 10.399 13.5724 10.1004C13.5549 9.89637 13.5836 9.79965 13.6715 9.76618C13.861 9.69421 13.8193 9.51879 13.5772 9.36995C12.9862 9.00652 12.8574 8.71255 13.1673 8.43486C13.3291 8.28986 13.3373 8.11059 13.1983 7.75511C13.0383 7.34551 13.9578 6.98063 14.2989 7.31839ZM17.6801 7.67493C17.6801 7.93067 17.7693 8.42666 17.8858 8.81906C18.1286 9.63574 18.091 10.2463 17.7983 10.2463C17.6683 10.2463 17.6319 10.1771 17.5914 9.85377C17.5628 9.62476 17.4224 9.24585 17.2545 8.94434C16.9161 8.33669 16.8852 7.97724 17.1432 7.64622C17.5661 7.1034 17.6802 7.10949 17.6801 7.67493ZM29.0236 7.66223C28.7202 7.91519 28.7208 7.94522 29.0371 8.33497L29.2944 8.65209L29.0886 8.82117C28.9753 8.91405 28.5205 9.28329 28.0779 9.64169C27.1578 10.3869 27.2124 10.2952 27.4811 10.6441C27.7575 11.003 27.7225 11.0156 28.7299 10.1952C29.2152 9.79992 29.6609 9.43901 29.7202 9.3931C29.8031 9.32893 29.8979 9.39059 30.1302 9.66021L30.4324 10.0108L30.6504 9.8498C31.0632 9.54525 31.0621 9.48081 30.6369 8.97927C30.4222 8.72618 30.2273 8.50127 30.2038 8.47971C30.1803 8.45814 29.9878 8.21961 29.7759 7.94972C29.3342 7.38718 29.3477 7.39234 29.0236 7.66223ZM20.8679 7.90566C20.8272 7.98385 20.7705 8.14578 20.7416 8.26552C20.7029 8.4256 20.5901 8.52958 20.3144 8.65924C19.8758 8.86549 19.8352 9.03179 20.2004 9.12546C20.4925 9.20047 20.7281 9.51826 20.8093 9.94637C20.8828 10.3344 21.0923 10.264 21.2016 9.81447C21.2796 9.49365 21.3258 9.44311 21.7035 9.2649C22.1995 9.03087 22.2078 8.99845 21.8226 8.80371C21.441 8.61082 21.2784 8.42771 21.1915 8.09247C21.1107 7.78064 20.9737 7.70152 20.8679 7.90566ZM11.5275 9.20603C12.0058 9.63084 13.3234 12.5709 12.9766 12.4392C12.7019 12.3348 10.7825 9.63441 10.7825 9.35248C10.7825 9.00811 11.2101 8.92397 11.5275 9.20603ZM11.1005 11.0691C12.3058 12.2506 12.3683 12.3497 11.9959 12.49C11.8227 12.555 11.7405 12.5168 11.3494 12.1886C11.1031 11.9818 10.7316 11.6782 10.5238 11.5141C9.49865 10.7038 9.1819 10.2532 9.45056 9.98726C9.68715 9.75295 9.90116 9.89332 11.1005 11.0691ZM23.455 10.7292C23.4293 11.0243 23.5432 11.1461 23.847 11.148C24.0456 11.1494 24.1942 11.3937 24.0293 11.4481C23.5107 11.6193 23.2323 12.1836 23.5545 12.4107C23.8679 12.6318 23.8528 12.8465 23.5138 12.9867C23.131 13.1451 23.0268 13.3686 23.1555 13.7549C23.2853 14.1444 23.1618 14.2903 22.6538 14.3469C22.1549 14.4026 22.1555 14.3919 22.7279 12.9642C23.2311 11.7087 23.2757 11.4474 22.9663 11.5649C22.8688 11.602 22.6632 12.0765 21.947 13.9169C21.8344 14.2061 21.6768 14.1889 21.3564 13.8525C21.0252 13.5047 21.0123 13.3477 21.3149 13.3477C21.7128 13.3477 21.8463 13.1083 21.7258 12.6107C21.6035 12.1063 21.6468 12.0129 22.003 12.0129C22.3705 12.0129 22.4698 11.8217 22.3438 11.3555C22.2241 10.9123 22.3356 10.7223 22.6466 10.8394C22.9586 10.9569 23.0503 10.929 23.1087 10.6986C23.2169 10.2714 23.4927 10.2958 23.455 10.7292ZM18.687 10.6424C20.3199 10.8541 22.1316 11.4338 21.7784 11.6316C21.6707 11.6918 21.5123 11.6634 21.1441 11.5178C20.1404 11.1209 19.0256 10.9009 17.4621 10.7914C16.9127 10.7529 16.7288 10.7125 16.7288 10.6306C16.7288 10.4813 17.4792 10.4859 18.687 10.6424ZM13.7952 11.0273C13.7952 11.1379 13.463 11.3063 13.2451 11.3063C13.0789 11.3063 12.967 11.1017 13.0915 11.0255C13.3848 10.846 13.7952 10.8469 13.7952 11.0273ZM17.5084 11.1299C17.439 11.2852 16.5796 12.0129 16.54 11.9496C16.486 11.8631 16.7281 11.2126 16.8447 11.1308C16.9533 11.0546 17.5424 11.0539 17.5084 11.1299ZM18.588 11.333C18.7238 11.4314 18.7132 11.453 18.4249 11.6619C18.2551 11.7848 17.9668 12.0253 17.7842 12.1963C17.4671 12.4931 16.9666 12.5258 16.9666 12.2497C16.9666 11.8699 18.2935 11.1197 18.588 11.333ZM19.7415 11.5718C19.7415 11.6315 19.6077 11.7811 19.4442 11.9045C19.2806 12.0278 18.9014 12.3517 18.6013 12.6242C18.0332 13.1402 17.7781 13.2226 17.8256 12.8747C17.8933 12.379 19.7415 11.1221 19.7415 11.5718ZM13.8213 11.8019C13.8992 11.9449 14.1034 12.2144 14.2755 12.4007C14.6045 12.7572 14.6449 12.8675 14.499 13.012C14.2998 13.2093 13.918 12.894 13.6103 12.2781C13.2549 11.5666 13.2522 11.6358 13.6385 11.5509C13.6612 11.546 13.7435 11.6589 13.8213 11.8019ZM21.0093 11.7753C21.1499 11.8633 21.1449 11.8683 20.4314 12.3533C19.5235 12.9703 18.7992 12.8706 19.6027 12.2391C20.2368 11.741 20.7069 11.586 21.0093 11.7753ZM10.4496 11.9502C10.5954 12.0946 10.5749 12.1242 10.1296 12.4099C9.08037 13.0832 8.83497 13.7242 9.2853 14.616C10.2457 16.5183 17.0526 17.3842 21.1663 16.1273C23.0787 15.543 23.99 14.6876 23.8295 13.6276C23.7822 13.3151 23.9457 13.0337 24.1745 13.0337C24.4664 13.0337 24.4933 14.1904 24.2143 14.7447C22.3483 18.4532 8.96402 17.9558 8.51167 14.161C8.38957 13.137 9.9037 11.4096 10.4496 11.9502ZM21.3259 12.652C21.3278 12.8421 20.6362 13.15 20.4855 13.0262C20.3412 12.9075 20.516 12.6945 20.9306 12.4836C21.2199 12.3366 21.3234 12.3807 21.3259 12.652ZM11.2406 12.6062C11.5155 12.7969 11.4727 12.9858 11.1681 12.9255C10.0332 12.7007 9.4022 13.9038 10.3898 14.4096C10.7405 14.5891 12.1144 14.3527 12.4727 14.0511C12.5834 13.9579 12.321 13.4626 12.0495 13.2521L11.791 13.0517L11.9963 12.9185C12.3204 12.7081 12.9931 12.7367 13.5001 12.9824C14.429 13.4325 14.4874 13.8755 13.6763 14.3187C13.1917 14.5836 12.6854 15.1272 12.6854 15.3827C12.6854 15.8588 14.8459 16.2547 15.5306 15.9041C16.3673 15.4755 16.071 14.4701 15.0189 14.1672C14.4381 14 14.4282 13.6338 14.9877 13.0029C15.8695 12.0083 17.9708 12.6727 17.2207 13.7088C16.6644 14.4774 16.5603 14.9482 16.957 14.9027C17.1342 14.8823 17.1711 14.8323 17.2074 14.5623C17.3437 13.5519 18.9912 12.7961 20.0346 13.2652C20.2177 13.3475 20.5969 13.6263 20.8775 13.8848C21.5803 14.5323 21.7947 14.6296 22.5357 14.637C23.2308 14.644 23.2487 14.6582 22.8944 14.9229C19.632 17.36 9.55583 16.5587 9.50105 13.8577C9.48569 13.0983 10.6954 12.228 11.2406 12.6062ZM2.43231 12.803C2.30339 12.9521 2.21562 12.9635 1.31695 12.9478C0.780444 12.9386 0.308464 12.9512 0.268253 12.9759C0.227775 13.0006 0.186896 13.8042 0.177143 14.7699C0.16659 15.8128 0.127313 16.5507 0.0797544 16.5978C0.0359362 16.6412 0 16.8287 0 17.0145V17.3519H0.396501H0.792868V15.448V13.544H2.79474H4.79662V13.2692V12.9944L4.202 12.9746C3.45228 12.9494 3.25069 12.9034 3.25069 12.7573C3.25069 12.5662 2.60598 12.6021 2.43231 12.803ZM28.9153 12.7983C28.8815 12.9261 28.8167 12.9519 28.5692 12.9357L28.2644 12.9158L28.2403 13.2888L28.2161 13.6617H29.3348H30.4533L30.4293 13.2888L30.4051 12.9158L30.102 12.942C29.8498 12.9637 29.7918 12.9407 29.7559 12.8046C29.6931 12.5667 28.9778 12.5614 28.9153 12.7983ZM31.4248 12.7588C31.3928 12.8413 31.2629 12.8767 30.9912 12.8767H30.6032V13.2299V13.5833H30.9997C31.2992 13.5833 31.3961 13.612 31.3961 13.701C31.3961 13.7878 31.3046 13.8188 31.0478 13.8188C30.6104 13.8188 30.6032 13.837 30.6032 14.9596V15.8519L31.0195 15.8758L31.4358 15.8994L31.4586 16.5865L31.4816 17.2735H31.8352H32.189V16.5669V15.8601H32.5877H32.9865L32.9643 14.8592L32.9422 13.8581L32.5853 13.8521C32.3179 13.8476 32.2222 13.8132 32.203 13.7146C32.1818 13.6058 32.2461 13.5833 32.5796 13.5833H32.9818V13.2299V12.8767H32.5853C32.2858 12.8767 32.189 12.8478 32.189 12.7588C32.189 12.6715 32.0961 12.641 31.8297 12.641C31.5835 12.641 31.4561 12.6781 31.4248 12.7588ZM15.4297 13.3842C15.2718 13.6228 15.2686 13.7109 15.4156 13.7668C15.5712 13.8259 15.9359 13.5282 15.9359 13.342C15.9359 13.1152 15.5886 13.144 15.4297 13.3842ZM11.6938 13.4934C12.0342 13.6903 11.9899 13.8301 11.5357 13.9914C10.851 14.2346 10.2275 14.0573 10.2275 13.6194C10.2275 13.2994 11.2121 13.2148 11.6938 13.4934ZM18.7787 13.5353C18.1145 13.7703 17.7117 14.117 17.8936 14.2972C17.962 14.3649 18.0767 14.3216 18.3569 14.1227C18.6961 13.8815 18.779 13.8581 19.2936 13.8581C19.753 13.8581 19.8628 13.8341 19.8831 13.7297C19.9335 13.4715 19.2829 13.3569 18.7787 13.5353ZM12.849 13.5785C12.6785 13.6853 12.886 13.8974 13.1611 13.8974C13.3971 13.8974 13.6027 13.7193 13.5199 13.5867C13.4572 13.4863 13.005 13.4807 12.849 13.5785ZM16.4636 13.6484C16.2842 13.8447 16.2959 14.0544 16.4864 14.0544C16.645 14.0544 16.8874 13.7828 16.8874 13.605C16.8874 13.4559 16.6139 13.4838 16.4636 13.6484ZM7.92828 13.691C7.92828 13.7551 7.80551 13.8181 7.62462 13.8468C6.66196 13.9992 6.82628 15.0665 7.84144 15.2554C8.37554 15.3548 8.72235 15.7334 8.49003 15.9635C8.34121 16.1108 6.96628 15.824 6.78994 15.6089C6.60625 15.3848 6.62776 14.0855 6.81893 13.8574C7.0431 13.5899 7.92828 13.4572 7.92828 13.691ZM26.0888 13.805C26.4564 14.2546 26.3582 15.5524 25.9398 15.7741C25.7767 15.8605 24.4286 16.0526 24.3728 15.9975C24.1722 15.7989 24.5663 15.3522 25.0139 15.2707C25.826 15.123 25.9864 14.9572 25.8861 14.3697C25.8197 13.9799 25.6742 13.8634 25.2438 13.8554C24.8569 13.8481 24.7228 13.7702 24.8972 13.6541C25.1133 13.5101 25.9326 13.614 26.0888 13.805ZM1.58574 14.0936C1.58574 14.2707 1.55434 14.2899 1.26378 14.2899H0.941823L0.966404 14.5844C0.989782 14.8627 1.00728 14.8801 1.28836 14.9031L1.58574 14.9274V16.1397V17.3519L1.88298 17.3521H2.18035V16.1546V14.9573L2.4776 14.9329C2.76669 14.9092 2.77497 14.8999 2.77497 14.5992C2.77497 14.2846 2.74451 14.2592 2.40118 14.2864C2.27307 14.2966 2.21188 14.246 2.17461 14.0988C2.09926 13.8017 1.58574 13.7971 1.58574 14.0936ZM3.63276 14.074C3.61232 14.2165 3.549 14.2554 3.3056 14.2753C2.84284 14.313 2.88171 14.8647 3.34968 14.9031L3.64706 14.9274V16.1397V17.3519H3.92453H4.202V16.1397V14.9274L4.49937 14.9031C4.96748 14.8647 5.00622 14.313 4.54346 14.2753C4.30006 14.2554 4.23673 14.2165 4.21629 14.074C4.19585 13.9308 4.14055 13.8974 3.92453 13.8974C3.70864 13.8974 3.65334 13.9308 3.63276 14.074ZM28.4627 14.2187C28.4627 14.3956 28.4195 14.4727 28.3041 14.5028C28.176 14.5358 28.1455 14.6098 28.1455 14.8879V15.2321H28.5008C28.8135 15.2321 28.862 15.2555 28.9057 15.4282C28.9881 15.753 28.8974 15.8601 28.54 15.8601H28.2161L28.2403 16.2331C28.2632 16.5866 28.2769 16.6067 28.5022 16.6185C28.6331 16.6254 28.7848 16.6342 28.8393 16.6382C28.9027 16.6428 28.9383 16.7722 28.9383 16.9987V17.3519H29.3348H29.7311V17.0076V16.6632L30.088 16.6101L30.4447 16.5572V16.2088V15.8601H30.0832H29.7217L29.7462 15.5658C29.7717 15.2603 29.7748 15.2584 30.2663 15.2411C30.5547 15.2311 30.6915 14.5254 30.4051 14.5254C30.322 14.5254 30.2862 14.4426 30.2862 14.2506C30.2862 13.9773 30.2842 13.9758 29.9294 13.9758C29.5744 13.9758 29.5726 13.9773 29.5726 14.2506C29.5726 14.4914 29.5481 14.5254 29.3744 14.5254C29.2008 14.5254 29.1762 14.4914 29.1762 14.2506C29.1762 13.9773 29.1743 13.9758 28.8194 13.9758C28.4735 13.9758 28.4627 13.9832 28.4627 14.2187ZM8.05492 14.2715C8.1801 14.3546 8.2509 14.7038 8.16914 14.8348C8.08325 14.9724 7.47073 14.8207 7.40273 14.645C7.28757 14.3478 7.76129 14.0765 8.05492 14.2715ZM18.1879 14.7736C17.0066 15.5418 16.7276 15.7658 16.7807 15.903C16.8489 16.079 17.0228 16.0394 17.2633 15.7933C17.7243 15.3212 18.0935 15.2709 18.5005 15.6247C18.9818 16.0432 19.2014 15.8017 18.7479 15.3526C18.4108 15.0187 18.4098 15.0447 18.7689 14.8031C19.2794 14.4595 19.5576 14.5598 19.3055 14.9965C18.8935 15.7102 20.5935 16.0504 21.347 15.405C21.84 14.9829 20.878 14.1582 20.1378 14.3685C19.932 14.4269 19.8268 14.4174 19.689 14.3281C19.3509 14.1086 19.0923 14.1855 18.1879 14.7736ZM25.4917 14.4567C25.5533 14.7343 25.4618 14.8293 25.1129 14.85C24.993 14.8572 24.8504 14.8666 24.7959 14.8709C24.7018 14.8784 24.6906 14.5546 24.7764 14.3095C24.8581 14.0758 25.4335 14.1942 25.4917 14.4567ZM15.0096 14.5607C15.6025 14.7701 15.8054 15.1976 15.459 15.508C15.1465 15.788 13.8197 15.7573 13.3237 15.4586L13.0607 15.3003L13.3235 15.0317C13.8439 14.5001 14.3989 14.3451 15.0096 14.5607ZM31.4561 14.8064C31.4825 15.0034 31.3587 15.1885 31.2465 15.1198C31.1495 15.0604 31.1264 14.7402 31.2128 14.6546C31.3036 14.5647 31.4346 14.6463 31.4561 14.8064ZM32.4119 14.8531C32.3761 15.2131 32.189 15.2401 32.189 14.8854C32.189 14.6825 32.2236 14.604 32.3129 14.604C32.4044 14.604 32.4304 14.6691 32.4119 14.8531ZM11.5379 14.7889C11.1743 15.0523 11.6905 15.2771 12.1662 15.0625C12.4079 14.9534 12.421 14.8731 12.2148 14.7638C12.0028 14.6513 11.7131 14.6622 11.5379 14.7889ZM20.7761 14.8023C21.2398 15.0398 21.0089 15.2824 20.2613 15.3436C19.7801 15.3829 19.628 15.2723 19.7962 15.0055C19.9888 14.6997 20.4067 14.6131 20.7761 14.8023ZM14.388 14.9995C14.308 15.128 14.5494 15.3422 14.7067 15.2823C14.7787 15.255 14.8258 15.1706 14.8112 15.0949C14.7805 14.9355 14.4715 14.8659 14.388 14.9995ZM1.07782 15.5658C0.964533 16.8052 0.981099 17.3519 1.13166 17.3519C1.32042 17.3519 1.32724 17.3187 1.38388 16.1153C1.4309 15.1185 1.42649 15.0751 1.27781 15.0751C1.14515 15.0751 1.11616 15.1461 1.07782 15.5658ZM2.37059 15.134C2.34748 15.3053 2.38916 16.584 2.42937 16.9398C2.46744 17.2752 2.50391 17.3519 2.62588 17.3519C2.76589 17.3519 2.78673 15.6072 2.6518 15.1732C2.6192 15.0683 2.38381 15.0354 2.37059 15.134ZM3.13834 15.2517C2.99954 15.9311 3.01851 17.3519 3.16626 17.3519C3.33459 17.3519 3.36424 17.1863 3.44467 15.8013C3.48434 15.1169 3.4778 15.0751 3.33058 15.0751C3.23212 15.0751 3.16105 15.1404 3.13834 15.2517ZM4.39985 15.9583C4.46638 17.1901 4.49777 17.3519 4.6693 17.3519C4.79969 17.3519 4.80944 17.2814 4.78179 16.5472C4.7341 15.2854 4.69522 15.0751 4.51006 15.0751C4.35884 15.0751 4.35416 15.1127 4.39985 15.9583ZM30.7283 16.4687C30.6998 16.6738 30.6572 16.9388 30.6337 17.0576C30.5944 17.2548 30.6114 17.2735 30.8302 17.2735C31.128 17.2735 31.1298 17.2703 31.199 16.6258L31.256 16.0958H31.0179C30.794 16.0958 30.7768 16.118 30.7283 16.4687ZM32.3827 16.5472C32.4636 17.23 32.4861 17.2735 32.7585 17.2735H33L32.9466 16.8221C32.8656 16.1393 32.8432 16.0958 32.5709 16.0958H32.3292L32.3827 16.5472ZM10.3169 17.3717C10.5002 17.6416 10.8251 18.0306 11.0391 18.2362C11.4337 18.6155 11.5045 18.8566 11.2363 18.9078C10.822 18.9868 9.40701 17.0786 9.77171 16.933C9.95674 16.859 9.98359 16.8807 10.3169 17.3717ZM14.715 20.8788C14.8414 20.9183 15.043 20.972 15.1629 20.998C15.3474 21.0379 15.381 21.0853 15.381 21.3064C15.381 22.0226 14.4391 22.023 14.3034 21.3069C14.2156 20.8431 14.3049 20.7502 14.715 20.8788ZM18.5657 21.2385C18.4931 21.8891 17.9972 22.0718 17.9972 21.4479C17.9972 20.9981 18.0344 20.9489 18.3512 20.9796C18.5675 21.0006 18.5893 21.0268 18.5657 21.2385ZM16.2831 22.6001C16.1471 22.7581 15.9405 23.0745 15.8241 23.3033C15.5179 23.9046 15.2219 23.9157 14.3503 23.3586C13.6234 22.8941 13.3871 23.1477 13.9626 23.7745C15.0275 24.9341 17.6407 24.998 18.8741 23.8945C19.4041 23.4204 19.2955 23.3103 18.4998 23.5155C17.3396 23.8148 16.8276 23.6101 16.7399 22.8118C16.6788 22.2572 16.6071 22.2239 16.2831 22.6001ZM28.4199 26.0735C27.4161 26.202 26.7977 26.9536 26.7977 28.0449C26.7977 29.5104 27.9124 30.2598 29.5687 29.9081L29.9691 29.823V28.7271V27.6312L29.3149 27.6541L28.6608 27.6768L28.6372 28.0392C28.6143 28.3871 28.623 28.4034 28.8552 28.4495C29.2597 28.5295 29.2124 28.9728 28.7996 28.9712C27.8063 28.9673 27.4439 27.5439 28.3181 27.0804C28.5721 26.9459 29.3541 26.9684 29.659 27.1189C29.7993 27.1882 29.9265 27.245 29.9415 27.245C30.1174 27.245 29.9413 26.3106 29.751 26.2338C29.3831 26.0854 28.8391 26.0198 28.4199 26.0735ZM2.98631 26.1981C2.95732 26.227 2.93354 27.0926 2.93354 28.1217V29.993H3.40927H3.88485V29.0116C3.88485 27.8656 3.88939 27.8619 4.40332 28.5788C4.88719 29.2538 4.87958 29.254 5.3891 28.5753C5.92908 27.8561 5.91077 27.8265 5.93762 29.463L5.94631 29.993H6.41535C6.99073 29.993 6.94157 30.1904 6.91472 27.9879L6.892 26.1385L6.39932 26.1617L5.90663 26.185L5.44814 26.8525C4.8717 27.6916 4.94517 27.6914 4.36699 26.8554L3.87617 26.1457H3.45776C3.22758 26.1457 3.01544 26.1693 2.98631 26.1981ZM8.44087 26.2289C8.41228 26.2746 8.10956 27.1402 7.76823 28.1526L7.14757 29.993H7.69342H8.23941L8.32571 29.6755L8.41201 29.358L8.94317 29.3811L9.47434 29.4041L9.54781 29.6986L9.62129 29.993H10.2019C10.5213 29.993 10.7823 29.9665 10.7819 29.9341C10.7817 29.9018 10.5818 29.3099 10.3379 28.6191C10.0938 27.9281 9.8011 27.0889 9.68728 26.7543L9.48035 26.1457H8.98646C8.71487 26.1457 8.46933 26.1832 8.44087 26.2289ZM11.1572 26.1935C11.1306 26.2197 11.106 27.0853 11.1026 28.1171L11.0961 29.993H12.3703H13.6447L13.6209 29.5416L13.5971 29.09L12.9034 29.0674L12.2096 29.0448V27.5952V26.1457H11.7075C11.4313 26.1457 11.1836 26.1673 11.1572 26.1935ZM14.4692 27.9998C14.1204 29.0189 13.823 29.8842 13.8085 29.9229C13.7939 29.9615 14.0333 29.993 14.3404 29.993H14.8988L14.994 29.679C15.0836 29.3826 15.1312 29.3453 15.4206 29.3453C16.1559 29.3453 16.1565 29.3455 16.2134 29.679L16.2669 29.993H16.8605C17.296 29.993 17.4471 29.9669 17.4283 29.895C17.4142 29.841 17.1218 28.9753 16.7785 27.9713L16.1545 26.1457L15.6289 26.1463L15.1035 26.1468L14.4692 27.9998ZM17.7594 28.0694V29.993H18.2352H18.7109V29.2864C18.7109 28.532 18.7293 28.504 19.1018 28.6947C19.4328 28.8642 19.7309 29.2533 19.8308 29.6464L19.9189 29.993H20.435H20.9511L20.8991 29.6718C20.824 29.2062 20.5768 28.7744 20.1579 28.377L19.7904 28.0282L20.0747 27.7348C20.4199 27.3784 20.6546 26.9276 20.7307 26.4753L20.7876 26.1375L20.3324 26.1612L19.8773 26.185L19.7822 26.5053C19.6635 26.9046 19.4081 27.2528 19.1031 27.4313C18.7634 27.63 18.7109 27.5465 18.7109 26.8085V26.1457H18.2352H17.7594V28.0694ZM21.3007 26.1981C21.2717 26.227 21.2479 27.0926 21.2479 28.1217V29.993H21.7632H22.2786V28.0694V26.1457H21.8161C21.5617 26.1457 21.3298 26.1693 21.3007 26.1981ZM22.8898 26.1948C22.8588 26.2254 22.8335 27.0926 22.8335 28.1217V29.993H23.3489H23.8642V29.0116C23.8642 27.8736 23.8691 27.8687 24.3399 28.5454C24.5362 28.8274 24.853 29.2701 25.0441 29.5291L25.3914 30L25.8765 29.9768L26.3617 29.9538V28.0694V26.185L25.8661 26.1616L25.3706 26.1383L25.3632 26.7898C25.3591 27.1482 25.3561 27.5933 25.3565 27.7794C25.3575 28.2546 25.2797 28.1923 24.5376 27.1234L23.886 26.185L23.416 26.1621C23.1575 26.1494 22.9206 26.1641 22.8898 26.1948ZM15.7676 27.7495C15.9193 28.3463 15.8969 28.4227 15.5707 28.4227C15.3744 28.4227 15.2967 28.3919 15.3227 28.3246C15.3436 28.2706 15.4063 28.0245 15.4621 27.7776C15.5784 27.2629 15.6424 27.2569 15.7676 27.7495ZM9.13769 27.8697C9.27021 28.3907 9.25992 28.4227 8.95907 28.4227C8.65689 28.4227 8.64633 28.3889 8.78701 27.8693C8.94478 27.2859 8.98926 27.2859 9.13769 27.8697Z" fill="#E4DDCB"/>
</svg>
