<svg width="68" height="63" viewBox="0 0 68 63" fill="none" xmlns="http://www.w3.org/2000/svg">
<path fill-rule="evenodd" clip-rule="evenodd" d="M30.2123 2.67937C30.2051 4.32967 30.1468 5.23206 30.0603 5.02896C29.9832 4.84754 29.9147 3.79819 29.9084 2.69715C29.8968 0.673455 29.7864 0.320892 29.2653 0.64595C28.848 0.906275 29.0971 6.33892 29.5296 6.40088C29.8371 6.44478 29.8814 6.52618 29.7991 6.89541C29.5169 8.1637 29.3796 8.57405 29.2372 8.57405C29.1508 8.57405 29.0801 8.87077 29.0801 9.23361V9.8929H29.8038H30.5272L30.7199 8.95634C30.9299 7.93532 31.0871 8.00145 31.2815 9.19222L31.396 9.8929H32.1984H33.0011V9.27307C33.0011 8.84549 32.9059 8.5935 32.6945 8.46014C32.526 8.35401 32.3383 7.98366 32.2774 7.63721C32.2166 7.29104 32.1291 6.87763 32.0828 6.71899C32.0181 6.49729 32.0957 6.43061 32.4181 6.43061H32.8376V3.55481C32.8376 0.701237 32.7812 0.40035 32.2807 0.594274C32.0597 0.679845 32.0209 1.05158 32.0209 3.07778C32.0209 4.62445 31.9633 5.42487 31.8574 5.35875C31.7596 5.29763 31.6941 4.20298 31.6941 2.62853V0H30.9588H30.2238L30.2123 2.67937ZM35.2882 0.156417C35.2882 0.242266 34.9022 0.335061 34.4304 0.362288L33.5729 0.412297L33.5275 2.76189L33.4821 5.11148H36.1052H38.7281L38.6827 2.76189L38.6372 0.412297L37.7797 0.362288C37.3079 0.335061 36.922 0.242266 36.922 0.156417C36.922 0.0702904 36.5545 0 36.1052 0C35.6559 0 35.2882 0.0702904 35.2882 0.156417ZM36.922 1.89618C36.922 2.08315 36.7224 2.14344 36.1052 2.14344C35.488 2.14344 35.2882 2.08315 35.2882 1.89618C35.2882 1.70947 35.488 1.64891 36.1052 1.64891C36.7224 1.64891 36.922 1.70947 36.922 1.89618ZM36.922 3.6276C36.922 3.71817 36.5545 3.79235 36.1052 3.79235C35.6559 3.79235 35.2882 3.71817 35.2882 3.6276C35.2882 3.53675 35.6559 3.46257 36.1052 3.46257C36.5545 3.46257 36.922 3.53675 36.922 3.6276ZM33.4911 6.18306V6.76039H34.3897C34.8838 6.76039 35.2882 6.83457 35.2882 6.92514C35.2882 7.01571 34.8838 7.08989 34.3897 7.08989H33.4911V7.65861C33.4911 8.22677 33.4914 8.22704 34.336 8.27677C35.5467 8.34818 35.564 8.70852 34.3597 8.77159C33.4187 8.82076 33.4088 8.8266 33.3582 9.35725L33.307 9.8929H36.0947H38.8825V9.32419V8.75519L37.943 8.70574C36.7675 8.64406 36.7103 8.34373 37.8612 8.27677L38.719 8.22704V7.65861V7.08989H37.8205C36.6285 7.08989 36.6624 6.79039 37.8612 6.72733C38.79 6.67843 38.8013 6.67176 38.852 6.14194L38.9032 5.60601H36.1972H33.4911V6.18306ZM20.8299 6.94431C20.0211 7.30799 18.9663 7.76224 18.4856 7.95394C17.4555 8.36485 17.39 8.47903 17.7228 9.28335C18.011 9.97958 18.2216 10.0229 19.105 9.56812C19.8375 9.19111 19.8571 9.20583 20.414 10.5525C20.6201 11.0514 20.9205 11.7563 21.0815 12.1189C21.2428 12.4817 21.5264 13.1377 21.7122 13.5763C21.8977 14.0153 22.1061 14.3487 22.1749 14.3176C22.2437 14.2862 22.576 14.1534 22.913 14.0223C23.2499 13.8914 23.5255 13.7289 23.5255 13.6614C23.5255 13.5152 22.5972 11.194 21.9938 9.83122C21.4421 8.58516 21.4267 8.65018 22.3927 8.1562C22.848 7.92338 23.1968 7.68111 23.1679 7.61749C23.139 7.55414 23.009 7.22408 22.8794 6.88402C22.5917 6.13139 22.641 6.12972 20.8299 6.94431ZM45.7439 9.83039C44.0501 13.5672 44.1142 13.2668 44.9224 13.683C45.7386 14.1031 45.7761 14.0823 46.233 12.9462C46.6435 11.9252 46.6168 11.9391 47.4707 12.2992C48.4364 12.7065 49.4246 12.6612 49.9287 12.1864C51.0169 11.1612 51.342 9.50394 50.6315 8.60572C50.2912 8.17564 47.694 6.75317 47.2681 6.76372C47.1935 6.76539 46.5078 8.14564 45.7439 9.83039ZM48.958 9.46366C49.8593 10.246 49.0159 11.1973 47.8522 10.7111C47.2876 10.4749 47.2964 10.5352 47.7077 9.72148C48.0898 8.96606 48.3282 8.91689 48.958 9.46366ZM13.2011 11.2187C10.7684 12.5153 11.2199 16.2935 13.9617 17.5821C16.8004 18.9162 19.2903 16.0912 17.9108 13.1015C17.0423 11.219 14.847 10.3416 13.2011 11.2187ZM53.0234 11.7146C49.6595 13.4083 50.2758 18.4406 53.8374 18.3622C55.8197 18.3183 57.4939 16.5199 57.503 14.4248C57.5132 12.1014 55.1246 10.6564 53.0234 11.7146ZM15.3521 12.7759C17.0542 13.6641 16.7753 16.1849 15.0017 15.9448C13.3423 15.7201 12.67 13.5255 14.0316 12.7784C14.5802 12.4775 14.7798 12.4773 15.3521 12.7759ZM55.2708 13.4241C56.7609 14.8177 54.6602 17.3795 53.1082 16.0615C52.4519 15.5042 52.4233 14.6996 53.0311 13.8953C53.7386 12.9593 54.5837 12.7815 55.2708 13.4241ZM36.3675 14.1787C34.056 15.338 33.5404 17.1214 34.8821 19.3163C35.256 19.928 35.4517 20.4518 35.4517 20.8413V21.435H34.3938H33.3359L33.4953 21.0119C33.8732 20.0083 33.6646 19.0607 32.9874 18.7073C32.534 18.4706 32.5255 18.4411 32.6193 17.4276C32.7432 16.0882 32.3036 15.4442 31.2542 15.4272C30.7675 15.4192 30.4576 15.2861 30.0179 14.8966C28.5124 13.5622 26.4663 14.3948 26.4663 16.3418C26.4663 16.8164 26.3556 17.3298 26.2028 17.5651C25.8414 18.1219 26.0143 18.914 26.6727 19.718C27.3975 20.6026 27.4738 22.3096 26.7919 22.3899C26.4264 22.4332 26.3072 22.2851 25.677 21.0027C24.0793 17.7513 21.9071 17.0628 21.512 19.6827C21.3895 20.494 21.34 20.5362 20.8858 20.215C20.2738 19.7825 19.639 19.8833 19.0164 20.5115C18.1189 21.4175 18.2935 22.159 19.7219 23.5076C20.4415 24.1872 20.4137 24.2838 19.2757 25.0637C18.4025 25.6621 16.9906 27.1855 16.9906 27.5291C16.9906 27.6 16.4174 27.6914 15.7171 27.7325C13.4295 27.8661 13.0293 28.3876 13.0031 31.2704C12.9814 33.6747 13.0915 33.7675 16.6567 34.3512L17.8748 34.5507L18.7138 36.2282C20.071 38.942 21.7119 40.7701 23.9747 42.0887C25.432 42.9378 25.5 43.0606 25.0775 44.0807C24.9429 44.4064 24.8325 44.972 24.8325 45.3376C24.8325 46.2989 24.607 46.1614 23.9618 44.807C23.041 42.8744 21.8333 41.9215 20.0916 41.7525C19.0524 41.6517 18.9261 41.9159 19.6495 42.6786C20.6207 43.7021 20.8087 44.2419 20.6598 45.5807C20.2221 49.5184 22.1279 51.0478 27.1605 50.7984C27.3249 50.79 27.4465 50.6542 27.4465 50.4786C27.4465 50.2099 27.2632 50.1613 25.9353 50.0766C22.4554 49.8543 21.0347 48.5199 21.443 45.8572C21.5875 44.9148 21.5726 44.5492 21.359 43.791C21.0719 42.7719 21.1363 42.6961 21.8289 43.2392C22.5768 43.8257 22.8436 44.206 23.2204 45.2248C23.8517 46.9307 26.4825 48.456 26.0517 46.8665C25.6228 45.2851 25.7916 44.2644 26.7121 42.8683C27.7862 41.2394 28.004 40.6093 27.8873 39.468C27.7849 38.465 27.9184 38.2903 28.4956 38.672C29.6105 39.4091 29.8208 41.1185 29.0121 42.8697C28.0984 44.8478 28.883 46.8268 30.5806 46.8268C32.2543 46.8268 32.7438 45.9047 32.5841 43.0511C32.4492 40.6368 32.8255 39.9283 34.6435 39.1757C35.501 38.8204 35.6284 38.9893 35.3463 40.1073C35.1092 41.0469 35.1117 41.0666 35.6879 42.7508C36.1077 43.9774 36.2684 44.7281 36.2684 45.4604C36.2684 46.6251 36.5099 46.9918 37.2768 46.9918C38.3994 46.9918 39.2051 45.5485 39.2098 43.5293C39.2128 42.2146 39.7034 41.046 40.5777 40.2715C41.5365 39.4219 41.7988 39.596 41.3884 40.8113C41.1649 41.4736 41.1492 41.8423 41.2882 43.1611C41.4198 44.4066 41.4041 44.9729 41.2114 45.9386C40.9138 47.4305 40.9823 47.6514 41.7427 47.6514C42.9192 47.6514 44.0517 46.7143 44.3543 45.4907C44.4781 44.9901 45.5812 43.7832 45.7395 43.9755C46.0081 44.3013 45.6682 48.1154 45.3282 48.5882C44.8233 49.2906 43.3316 49.9754 41.9811 50.1252C40.725 50.2644 40.5939 50.3213 40.7274 50.6728C41.0534 51.5293 44.2887 50.7978 45.5592 49.5801C46.3748 48.7985 46.5609 48.2101 46.5609 46.4092C46.5609 44.7414 46.6344 44.493 47.4316 43.4667C47.901 42.8627 47.912 42.8155 47.6328 42.6094C46.6812 41.907 44.3187 43.422 43.5614 45.2201C42.7714 47.0963 41.806 47.3413 42.1267 45.5844C42.2346 44.9926 42.2759 44.1494 42.2184 43.7104L42.1132 42.9125L43.4574 42.1901C45.9035 40.8763 48.1479 38.4169 49.4626 35.6098L49.9669 34.5332L51.8014 34.2406C54.8614 33.7528 55.1637 33.4069 54.9096 30.6825C54.6814 28.2343 54.3301 27.8689 52.0745 27.7339C51.1754 27.68 50.8085 27.5953 50.8085 27.4413C50.8085 27.3222 50.3961 26.7751 49.8923 26.2259C49.3886 25.6766 49.0767 25.2271 49.1997 25.2271C50.2799 25.2271 50.705 23.2275 49.7252 22.7538C49.3635 22.5791 49.1722 22.3393 49.0717 21.9348C48.8044 20.8593 47.4338 20.6421 47.1244 21.6261C47.0559 21.8442 46.8689 21.9295 46.4607 21.9295C45.8099 21.9295 45.0904 22.5316 45.0904 23.0761C45.0904 23.4959 45.1146 23.4973 43.9628 23.008C43.162 22.668 41.2708 22.1412 39.7364 21.8314C39.4278 21.7692 39.3934 21.7036 39.5322 21.4417C40.0156 20.5304 39.5655 18.3805 38.7834 17.8632C38.0919 17.4059 37.8532 17.8677 38.3887 18.6267C38.6909 19.0551 38.934 21.4378 38.6997 21.6742C38.2978 22.0798 37.916 21.5117 37.9997 20.6335C38.0685 19.9164 37.9925 19.3857 37.6688 18.3141C37.1667 16.6536 37.1455 15.8268 37.5807 14.8585C38.1277 13.6419 37.8018 13.4594 36.3675 14.1787ZM8.02222 15.5873C7.37861 16.3271 7.35934 16.2629 8.50533 17.2028C9.56131 18.0688 9.55938 18.0485 8.6917 19.0371C8.08663 19.7263 8.18381 19.75 6.80493 18.5781L6.0625 17.9471L5.56837 18.4956C4.87962 19.2601 4.82814 19.1762 7.22913 21.2138C8.41972 22.2243 9.61444 23.2439 9.88394 23.4795C10.508 24.0246 10.5154 24.0235 11.0569 23.307L11.5114 22.7058L10.5512 21.8389L9.59104 20.9724L10.2066 20.2142C10.9584 19.2885 10.8744 19.2877 12.0171 20.2273L12.955 20.9982L13.4207 20.472C14.0214 19.7936 14.0076 19.5885 13.3266 19.0643C13.0183 18.827 11.8371 17.8166 10.7015 16.8186C8.29364 14.7029 8.64931 14.8663 8.02222 15.5873ZM29.4643 15.3686C29.5841 15.4895 29.7705 15.7551 29.8784 15.9587C30.0441 16.271 30.1977 16.3246 30.8595 16.301C31.9556 16.2618 32.0814 16.3769 31.9446 17.2931C31.7167 18.8187 31.7434 19.0196 32.2042 19.2446C32.9863 19.6269 33.0683 19.8541 32.7484 20.7521C32.3997 21.7306 32.4941 22.0354 33.2437 22.3513C33.9677 22.6566 34.0189 23.3828 33.4097 24.7036C32.793 26.0405 32.5981 25.8602 31.747 23.1661C30.4388 19.0248 29.0982 15.9671 28.5435 15.8593C28.0734 15.7679 28.2085 16.3702 29.1012 18.3447C29.5623 19.3641 30.332 21.4225 30.8121 22.9189L31.6848 25.6394L31.3219 25.9241C30.8107 26.3253 30.7626 26.3081 29.9582 25.4332C29.0743 24.4719 28.9496 24.0563 29.3306 23.3423C29.6859 22.6763 29.5684 22.3004 28.9647 22.1718C28.1972 22.0084 28.0202 21.8378 27.9674 21.2108C27.9313 20.7824 27.9905 20.5793 28.1716 20.509C28.562 20.3578 28.4761 19.9894 27.9773 19.6769C26.7594 18.9137 26.4941 18.2964 27.1327 17.7132C27.4661 17.4087 27.4829 17.0322 27.1966 16.2857C26.8668 15.4256 28.7616 14.6593 29.4643 15.3686ZM36.4317 16.1174C36.4317 16.6544 36.6156 17.696 36.8556 18.52C37.3558 20.235 37.2785 21.5172 36.6753 21.5172C36.4075 21.5172 36.3323 21.3719 36.2489 20.6929C36.19 20.212 35.9007 19.4163 35.5546 18.7831C34.8574 17.5071 34.7938 16.7522 35.3253 16.0571C36.1969 14.9171 36.432 14.9299 36.4317 16.1174ZM59.8063 16.0907C59.1811 16.6219 59.1822 16.685 59.8341 17.5034L60.3643 18.1694L59.9401 18.5245C59.7066 18.7195 58.7696 19.4949 57.8576 20.2476C55.9614 21.8126 56.074 21.62 56.6276 22.3527C57.1972 23.1064 57.125 23.1328 59.2009 21.41C60.201 20.5798 61.1194 19.8219 61.2416 19.7255C61.4125 19.5908 61.6077 19.7202 62.0864 20.2864L62.7091 21.0227L63.1584 20.6846C64.009 20.045 64.0068 19.9097 63.1306 18.8565C62.6882 18.325 62.2866 17.8527 62.2381 17.8074C62.1897 17.7621 61.793 17.2612 61.3564 16.6944C60.4463 15.5131 60.4741 15.5239 59.8063 16.0907ZM43.0004 16.6019C42.9167 16.7661 42.7997 17.1061 42.7403 17.3576C42.6605 17.6938 42.4281 17.9121 41.8599 18.1844C40.9562 18.6175 40.8725 18.9668 41.6251 19.1635C42.2269 19.321 42.7125 19.9883 42.8799 20.8874C43.0313 21.7023 43.4629 21.5545 43.6881 20.6104C43.8488 19.9367 43.9441 19.8305 44.7223 19.4563C45.7444 18.9648 45.7615 18.8967 44.9679 18.4878C44.1814 18.0827 43.8464 17.6982 43.6674 16.9942C43.5009 16.3393 43.2184 16.1732 43.0004 16.6019ZM23.7537 19.3327C24.7392 20.2248 27.4542 26.3989 26.7396 26.1222C26.1736 25.903 22.2184 20.2323 22.2184 19.6402C22.2184 18.917 23.0996 18.7403 23.7537 19.3327ZM22.8739 23.245C25.3574 25.7263 25.4863 25.9344 24.7188 26.2289C24.362 26.3656 24.1925 26.2853 23.3867 25.596C22.8791 25.1618 22.1135 24.5242 21.6855 24.1797C19.573 22.478 18.9203 21.5317 19.4739 20.9732C19.9614 20.4812 20.4024 20.776 22.8739 23.245ZM48.3315 22.5313C48.2786 23.1511 48.5132 23.4067 49.1392 23.4109C49.5485 23.4137 49.8546 23.9268 49.5149 24.041C48.4463 24.4005 47.8726 25.5855 48.5366 26.0625C49.1824 26.5267 49.1513 26.9777 48.4526 27.2722C47.6639 27.6047 47.4492 28.074 47.7143 28.8852C47.9819 29.7031 47.7273 30.0096 46.6806 30.1285C45.6525 30.2455 45.6539 30.223 46.8332 27.2249C47.8701 24.5883 47.9621 24.0396 47.3245 24.2863C47.1236 24.3641 46.6999 25.3607 45.2241 29.2256C44.9921 29.8329 44.6672 29.7968 44.0071 29.0903C43.3247 28.3598 43.298 28.0301 43.9215 28.0301C44.7416 28.0301 45.0166 27.5275 44.7683 26.4826C44.5164 25.4232 44.6056 25.2271 45.3395 25.2271C46.0968 25.2271 46.3013 24.8256 46.0417 23.8465C45.7951 22.9158 46.0249 22.5168 46.6658 22.7627C47.3086 23.0094 47.4977 22.9508 47.618 22.4671C47.841 21.57 48.4091 21.6211 48.3315 22.5313ZM38.5065 22.349C41.8712 22.7936 45.6046 24.011 44.8767 24.4264C44.6549 24.5528 44.3284 24.493 43.5697 24.1874C41.5015 23.3539 39.2043 22.8919 35.9824 22.6619C34.8505 22.581 34.4714 22.4963 34.4714 22.3243C34.4714 22.0106 36.0177 22.0204 38.5065 22.349ZM28.4265 23.1572C28.4265 23.3895 27.7419 23.7432 27.2929 23.7432C26.9505 23.7432 26.7198 23.3137 26.9764 23.1536C27.5809 22.7766 28.4265 22.7786 28.4265 23.1572ZM36.078 23.3728C35.9348 23.699 34.1639 25.2271 34.0824 25.0943C33.9712 24.9126 34.47 23.5465 34.7104 23.3748C34.9342 23.2148 36.1479 23.2131 36.078 23.3728ZM38.3025 23.7993C38.5825 24.006 38.5604 24.0513 37.9664 24.49C37.6165 24.7481 37.0224 25.2532 36.6461 25.6121C35.9929 26.2356 34.9614 26.3042 34.9614 25.7244C34.9614 24.9267 37.6958 23.3514 38.3025 23.7993ZM40.6795 24.3008C40.6795 24.4261 40.4037 24.7403 40.0668 24.9995C39.7298 25.2585 38.9483 25.9386 38.33 26.5109C37.1593 27.5944 36.6337 27.7675 36.7315 27.0368C36.871 25.9958 40.6795 23.3564 40.6795 24.3008ZM28.4802 24.7839C28.6407 25.0843 29.0616 25.6502 29.4162 26.0414C30.0942 26.7901 30.1773 27.0218 29.8767 27.3252C29.4663 27.7395 28.6795 27.0774 28.0456 25.7841C27.313 24.2899 27.3075 24.4353 28.1036 24.2569C28.1504 24.2466 28.32 24.4836 28.4802 24.7839ZM43.2919 24.7281C43.5815 24.9128 43.5714 24.9234 42.1011 25.9419C40.2303 27.2377 38.7377 27.0282 40.3935 25.7021C41.7 24.6561 42.6687 24.3305 43.2919 24.7281ZM21.5324 25.0954C21.833 25.3988 21.7906 25.4607 20.8731 26.0608C18.7111 27.4747 18.2054 28.8208 19.1334 30.6936C21.1123 34.6885 35.1387 36.5069 43.6154 33.8672C47.556 32.6403 49.434 30.8439 49.1031 28.618C49.0057 27.9617 49.3426 27.3708 49.8142 27.3708C50.4156 27.3708 50.471 29.7998 49.8962 30.9639C46.0511 38.7517 18.4713 37.7071 17.5392 29.7382C17.2876 27.5878 20.4076 23.9602 21.5324 25.0954ZM43.9444 26.5692C43.9482 26.9685 42.5231 27.615 42.2126 27.3549C41.9153 27.1057 42.2753 26.6584 43.1298 26.2156C43.7258 25.9069 43.9391 25.9994 43.9444 26.5692ZM23.1624 26.4731C23.7289 26.8735 23.6408 27.2702 23.0132 27.1435C20.6744 26.6715 19.3742 29.1981 21.4094 30.2602C22.132 30.6372 24.963 30.1407 25.7013 29.5073C25.9295 29.3117 25.3888 28.2715 24.8292 27.8295L24.2965 27.4086L24.7196 27.1288C25.3874 26.687 26.7738 26.7471 27.8184 27.263C29.7325 28.2082 29.8528 29.1386 28.1815 30.0693C27.1828 30.6255 26.1395 31.7671 26.1395 32.3036C26.1395 33.3035 30.5916 34.1348 32.0024 33.3985C33.7265 32.4987 33.1159 30.3872 30.9481 29.7512C29.7512 29.4 29.7308 28.631 30.8837 27.306C32.7008 25.2173 37.0307 26.6126 35.485 28.7885C34.3387 30.4024 34.1243 31.3912 34.9416 31.2957C35.3069 31.2529 35.3829 31.1479 35.4577 30.5808C35.7385 28.459 39.1333 26.8718 41.2835 27.857C41.6606 28.0298 42.4422 28.6152 43.0202 29.158C44.4685 30.5177 44.9103 30.7222 46.4373 30.7378C47.8696 30.7525 47.9065 30.7822 47.1764 31.3382C40.4538 36.456 19.6908 34.7732 19.5779 29.1011C19.5463 27.5064 22.0389 25.6788 23.1624 26.4731ZM5.01203 26.8862C4.74638 27.1994 4.56552 27.2233 2.71371 27.1905C1.60819 27.171 0.635623 27.1974 0.552764 27.2494C0.469354 27.3013 0.385118 28.9889 0.365023 31.0167C0.343276 33.2068 0.262342 34.7566 0.164342 34.8555C0.0740504 34.9466 0 35.3403 0 35.7304V36.4391H0.817032H1.63379V32.4409V28.4424H5.75886H9.88394V27.8653V27.2883L8.65867 27.2466C7.11379 27.1938 6.69839 27.0971 6.69839 26.7904C6.69839 26.3889 5.36989 26.4645 5.01203 26.8862ZM59.583 26.8765C59.5134 27.1449 59.3799 27.1991 58.8698 27.1649L58.2419 27.1232L58.192 27.9064L58.1422 28.6896H60.4474H62.7523L62.7028 27.9064L62.653 27.1232L62.0283 27.1782C61.5086 27.2238 61.3891 27.1755 61.3151 26.8896C61.1857 26.3901 59.7119 26.3789 59.583 26.8765ZM64.7542 26.7935C64.6881 26.9668 64.4205 27.041 63.8606 27.041H63.0612V27.7828V28.5249H63.8782C64.4954 28.5249 64.695 28.5852 64.695 28.7721C64.695 28.9544 64.5064 29.0194 63.9773 29.0194C63.0761 29.0194 63.0612 29.0578 63.0612 31.4151V33.2891L63.919 33.3391L64.7767 33.3888L64.8238 34.8316L64.8712 36.2743H65.5998H66.3288V34.7905V33.3063H67.1505H67.9722L67.9265 31.2043L67.8808 29.1019L67.1455 29.0894C66.5944 29.08 66.3973 29.0077 66.3577 28.8008C66.3139 28.5721 66.4466 28.5249 67.1337 28.5249H67.9626V27.7828V27.041H67.1455C66.5284 27.041 66.3288 26.9804 66.3288 26.7935C66.3288 26.6101 66.1375 26.5462 65.5885 26.5462C65.0812 26.5462 64.8186 26.624 64.7542 26.7935ZM31.7946 28.1067C31.4692 28.608 31.4626 28.793 31.7654 28.9102C32.0861 29.0344 32.8376 28.4093 32.8376 28.0181C32.8376 27.5419 32.1219 27.6025 31.7946 28.1067ZM24.0964 28.3362C24.7978 28.7496 24.7064 29.0433 23.7705 29.382C22.3596 29.8926 21.0749 29.5203 21.0749 28.6007C21.0749 27.9287 23.1037 27.7511 24.0964 28.3362ZM38.6956 28.424C37.3269 28.9177 36.4969 29.6456 36.8716 30.024C37.0125 30.1663 37.249 30.0754 37.8263 29.6576C38.5252 29.1511 38.6961 29.1019 39.7565 29.1019C40.7032 29.1019 40.9295 29.0516 40.9713 28.8324C41.0751 28.2901 39.7345 28.0495 38.6956 28.424ZM26.4767 28.5149C26.1255 28.7391 26.553 29.1844 27.1198 29.1844C27.6062 29.1844 28.0299 28.8105 27.8592 28.5321C27.7301 28.3212 26.7983 28.3096 26.4767 28.5149ZM33.925 28.6616C33.5553 29.0739 33.5795 29.5142 33.9721 29.5142C34.2988 29.5142 34.7982 28.9438 34.7982 28.5704C34.7982 28.2573 34.2347 28.316 33.925 28.6616ZM16.3371 28.751C16.3371 28.8858 16.0841 29.018 15.7113 29.0783C13.7277 29.3984 14.0663 31.6396 16.1581 32.0363C17.2587 32.245 17.9733 33.0401 17.4946 33.5233C17.1879 33.8328 14.3548 33.2304 13.9914 32.7787C13.6129 32.3081 13.6572 29.5795 14.0511 29.1005C14.513 28.5388 16.3371 28.2601 16.3371 28.751ZM53.7587 28.9905C54.5162 29.9346 54.3139 32.6601 53.4517 33.1257C53.1156 33.3071 50.3377 33.7105 50.2227 33.5947C49.8095 33.1777 50.6216 32.2397 51.5438 32.0686C53.2172 31.7582 53.5478 31.4101 53.3411 30.1763C53.2042 29.3578 52.9045 29.113 52.0175 29.0964C51.2203 29.0811 50.9439 28.9174 51.3034 28.6735C51.7486 28.3712 53.4369 28.5893 53.7587 28.9905ZM3.26758 29.5965C3.26758 29.9685 3.20289 30.0088 2.60415 30.0088H1.94073L1.99138 30.6272C2.03955 31.2118 2.07561 31.2481 2.6548 31.2965L3.26758 31.3476V33.8934V36.4391L3.88008 36.4394H4.49285V33.9247V31.4104L5.10535 31.359C5.70106 31.3093 5.71812 31.2898 5.71812 30.6583C5.71812 29.9976 5.65536 29.9443 4.94789 30.0015C4.68389 30.0229 4.55782 29.9165 4.48101 29.6076C4.32575 28.9836 3.26758 28.9739 3.26758 29.5965ZM7.4857 29.5553C7.44358 29.8546 7.3131 29.9362 6.81153 29.9782C5.85796 30.0574 5.93807 31.2159 6.90238 31.2965L7.51515 31.3476V33.8934V36.4391H8.08691H8.65867V33.8934V31.3476L9.27144 31.2965C10.236 31.2159 10.3159 30.0574 9.36228 29.9782C8.86072 29.9362 8.73024 29.8546 8.68812 29.5553C8.646 29.2547 8.53204 29.1844 8.08691 29.1844C7.64205 29.1844 7.52809 29.2547 7.4857 29.5553ZM58.6504 29.8593C58.6504 30.2307 58.5615 30.3927 58.3236 30.4558C58.0596 30.5252 57.9969 30.6805 57.9969 31.2645V31.9875H58.7288C59.3733 31.9875 59.4732 32.0366 59.5632 32.3992C59.7331 33.0813 59.5461 33.3063 58.8098 33.3063H58.1422L58.192 34.0895C58.2394 34.8319 58.2675 34.8741 58.7319 34.8988C59.0016 34.9133 59.3141 34.9319 59.4264 34.9402C59.5572 34.9499 59.6304 35.2216 59.6304 35.6973V36.4391H60.4474H61.2642V35.7159V34.9927L61.9994 34.8813L62.7344 34.7702V34.0384V33.3063H61.9895H61.2446L61.2953 32.6881C61.3479 32.0466 61.3542 32.0427 62.3669 32.0063C62.9613 31.9852 63.2432 30.5033 62.653 30.5033C62.4817 30.5033 62.408 30.3294 62.408 29.9262C62.408 29.3523 62.4038 29.3492 61.6727 29.3492C60.9413 29.3492 60.9374 29.3523 60.9374 29.9262C60.9374 30.4319 60.887 30.5033 60.5292 30.5033C60.1713 30.5033 60.1207 30.4319 60.1207 29.9262C60.1207 29.3523 60.1168 29.3492 59.3854 29.3492C58.6727 29.3492 58.6504 29.3648 58.6504 29.8593ZM16.598 29.9701C16.856 30.1446 17.0019 30.8781 16.8334 31.1531C16.6564 31.4421 15.3942 31.1234 15.2541 30.7544C15.0168 30.1304 15.993 29.5606 16.598 29.9701ZM37.478 31.0245C35.044 32.6378 34.4689 33.1082 34.5785 33.3963C34.7189 33.7658 35.0773 33.6828 35.5728 33.166C36.5228 32.1744 37.2837 32.0689 38.1222 32.8118C39.114 33.6908 39.5666 33.1835 38.632 32.2406C37.9375 31.5393 37.9353 31.5938 38.6752 31.0865C39.7273 30.3649 40.3005 30.5755 39.781 31.4926C38.9321 32.9915 42.435 33.7058 43.9879 32.3506C45.0036 31.464 43.0213 29.7323 41.496 30.1738C41.0721 30.2966 40.8552 30.2766 40.5714 30.0891C39.8746 29.6281 39.3417 29.7896 37.478 31.0245ZM52.5284 30.3591C52.6553 30.942 52.4668 31.1415 51.7477 31.1851C51.5008 31.2001 51.2068 31.2198 51.0945 31.229C50.9007 31.2445 50.8776 30.5647 51.0543 30.0499C51.2228 29.5592 52.4084 29.8079 52.5284 30.3591ZM30.9288 30.5775C32.1505 31.0173 32.5687 31.9149 31.8549 32.5667C31.211 33.1549 28.4769 33.0904 27.4548 32.4631L26.913 32.1305L27.4545 31.5665C28.5267 30.4502 29.6705 30.1246 30.9288 30.5775ZM64.8186 31.0934C64.8731 31.5071 64.6179 31.8958 64.3867 31.7516C64.1868 31.6268 64.1392 30.9545 64.3173 30.7747C64.5045 30.5858 64.7743 30.7572 64.8186 31.0934ZM66.7882 31.1915C66.7144 31.9474 66.3288 32.0041 66.3288 31.2593C66.3288 30.8334 66.4001 30.6683 66.5842 30.6683C66.7728 30.6683 66.8262 30.805 66.7882 31.1915ZM23.7751 31.0567C23.0258 31.6099 24.0895 32.0819 25.0698 31.6313C25.5678 31.4021 25.5947 31.2334 25.17 31.0039C24.7331 30.7678 24.136 30.7906 23.7751 31.0567ZM42.8113 31.0848C43.7668 31.5835 43.2911 32.093 41.7507 32.2217C40.7591 32.3042 40.4455 32.0719 40.7921 31.5115C41.1891 30.8695 42.0502 30.6875 42.8113 31.0848ZM29.648 31.499C29.4831 31.7688 29.9805 32.2186 30.3048 32.0927C30.4532 32.0355 30.5501 31.8583 30.52 31.6993C30.4567 31.3646 29.82 31.2184 29.648 31.499ZM2.22096 32.6881C1.98752 35.2908 2.02166 36.4391 2.3319 36.4391C2.72087 36.4391 2.73491 36.3694 2.85163 33.8422C2.94853 31.7488 2.93944 31.6577 2.63306 31.6577C2.3597 31.6577 2.29997 31.8069 2.22096 32.6881ZM4.88485 31.7813C4.83722 32.1411 4.92311 34.8263 5.00597 35.5737C5.08443 36.278 5.15958 36.4391 5.41091 36.4391C5.6994 36.4391 5.74235 32.7751 5.46431 31.8638C5.39715 31.6435 4.9121 31.5743 4.88485 31.7813ZM6.46688 32.0286C6.18087 33.4552 6.21996 36.4391 6.52442 36.4391C6.87127 36.4391 6.93238 36.0912 7.0981 33.1827C7.17986 31.7455 7.16637 31.6577 6.86301 31.6577C6.66013 31.6577 6.51368 31.7949 6.46688 32.0286ZM9.06636 33.5124C9.20345 36.0993 9.26814 36.4391 9.6216 36.4391C9.89027 36.4391 9.91037 36.291 9.85338 34.7491C9.75511 32.0994 9.675 31.6577 9.29346 31.6577C8.98184 31.6577 8.97221 31.7366 9.06636 33.5124ZM63.3189 34.5843C63.2602 35.0149 63.1724 35.5714 63.124 35.8209C63.043 36.2352 63.078 36.2743 63.5289 36.2743C64.1425 36.2743 64.1463 36.2677 64.2889 34.9141L64.4062 33.8011H63.9157C63.4543 33.8011 63.4188 33.8478 63.3189 34.5843ZM66.7279 34.7491C66.8948 36.1829 66.941 36.2743 67.5023 36.2743H68L67.8899 35.3264C67.7231 33.8925 67.6768 33.8011 67.1158 33.8011H66.6178L66.7279 34.7491ZM21.2591 36.4805C21.6368 37.0473 22.3062 37.8643 22.7472 38.2961C23.5604 39.0926 23.7063 39.5988 23.1535 39.7063C22.2999 39.8722 19.3841 35.8651 20.1356 35.5592C20.5169 35.4039 20.5722 35.4495 21.2591 36.4805ZM30.3218 43.8454C30.5823 43.9285 30.9977 44.0413 31.2449 44.0958C31.625 44.1797 31.6941 44.2791 31.6941 44.7434C31.6941 46.2475 29.7534 46.2484 29.4737 44.7445C29.2928 43.7704 29.4767 43.5754 30.3218 43.8454ZM38.2565 44.6008C38.107 45.9672 37.0852 46.3509 37.0852 45.0406C37.0852 44.096 37.1617 43.9927 37.8147 44.0571C38.2604 44.1013 38.3052 44.1563 38.2565 44.6008ZM33.5531 47.4602C33.2729 47.792 32.847 48.4565 32.6072 48.9369C31.9763 50.1996 31.3663 50.223 29.5703 49.053C28.0725 48.0776 27.5856 48.6102 28.7715 49.9265C30.9657 52.3617 36.3505 52.4959 38.8921 50.1785C39.9842 49.1828 39.7604 48.9516 38.1208 49.3825C35.73 50.011 34.6751 49.5812 34.4943 47.9048C34.3685 46.7401 34.2206 46.6701 33.5531 47.4602ZM58.5623 54.7543C56.4938 55.0241 55.2196 56.6025 55.2196 58.8943C55.2196 61.9718 57.5165 63.5457 60.9294 62.8069L61.7544 62.6283V60.327V58.0255L60.4064 58.0736L59.0586 58.1213L59.0099 58.8823C58.9628 59.613 58.9807 59.6472 59.4592 59.7439C60.2927 59.9119 60.1953 60.8429 59.3446 60.8396C57.2979 60.8313 56.5511 57.8421 58.3525 56.8689C58.8758 56.5863 60.4873 56.6336 61.1155 56.9497C61.4046 57.0953 61.6666 57.2145 61.6977 57.2145C62.06 57.2145 61.6972 55.2522 61.3052 55.0911C60.5471 54.7794 59.4261 54.6415 58.5623 54.7543ZM6.15362 55.0161C6.09388 55.0766 6.04488 56.8945 6.04488 59.0557V62.9853H7.02515H8.00515V60.9244C8.00515 58.5178 8.01451 58.51 9.07351 60.0156C10.0706 61.4331 10.0549 61.4333 11.1048 60.0081C12.2175 58.4978 12.1798 58.4356 12.2351 61.8723L12.253 62.9853H13.2195C14.4051 62.9853 14.3038 63.3998 14.2485 58.7745L14.2017 54.8908L13.1865 54.9397L12.1712 54.9885L11.2265 56.3902C10.0386 58.1525 10.19 58.1519 8.99864 56.3963L7.98726 54.906H7.12508C6.65077 54.906 6.21363 54.9555 6.15362 55.0161ZM17.3933 55.0808C17.3344 55.1766 16.7106 56.9945 16.0073 59.1204L14.7283 62.9853H15.8531H16.9782L17.156 62.3185L17.3338 61.6517L18.4284 61.7003L19.5229 61.7487L19.6743 62.3671L19.8257 62.9853H21.022C21.6802 62.9853 22.2181 62.9297 22.2173 62.8616C22.2168 62.7939 21.8049 61.5508 21.3023 60.1C20.7993 58.6489 20.1962 56.8867 19.9617 56.184L19.5353 54.906H18.5176C17.9579 54.906 17.4519 54.9847 17.3933 55.0808ZM22.9906 55.0063C22.9358 55.0613 22.8851 56.8792 22.878 59.046L22.8648 62.9853H25.4904H28.1163L28.0673 62.0373L28.0183 61.0891L26.5888 61.0416L25.1592 60.9941V57.9499V54.906H24.1245C23.5555 54.906 23.0451 54.9513 22.9906 55.0063ZM29.8153 58.7995C29.0966 60.9396 28.4838 62.7569 28.4538 62.838C28.4238 62.9192 28.9171 62.9853 29.55 62.9853H30.7006L30.8966 62.326C31.0813 61.7034 31.1793 61.625 31.7759 61.625C33.291 61.625 33.2921 61.6256 33.4094 62.326L33.5198 62.9853H34.7428C35.6403 62.9853 35.9516 62.9305 35.9128 62.7794C35.8839 62.6661 35.2813 60.8482 34.5738 58.7398L33.288 54.906L32.205 54.9071L31.1224 54.9083L29.8153 58.7995ZM36.5952 58.9457V62.9853H37.5755H38.5557V61.5014C38.5557 59.9172 38.5937 59.8583 39.3612 60.2589C40.0434 60.6148 40.6575 61.4319 40.8634 62.2574L41.0451 62.9853H42.1085H43.1719L43.0648 62.3107C42.9101 61.333 42.4006 60.4262 41.5376 59.5916L40.7803 58.8593L41.3661 58.243C42.0774 57.4946 42.5611 56.548 42.7177 55.5981L42.835 54.8888L41.8971 54.9385L40.9592 54.9885L40.7632 55.6612C40.5188 56.4997 39.9924 57.2309 39.364 57.6057C38.6639 58.023 38.5557 57.8477 38.5557 56.298V54.906H37.5755H36.5952V58.9457ZM43.8923 55.0161C43.8326 55.0766 43.7836 56.8945 43.7836 59.0557V62.9853H44.8454H45.9074V58.9457V54.906H44.9544C44.4302 54.906 43.9523 54.9555 43.8923 55.0161ZM47.1668 55.0091C47.1029 55.0733 47.0509 56.8945 47.0509 59.0557V62.9853H48.1129H49.1747V60.9244C49.1747 58.5345 49.1849 58.5242 50.155 59.9453C50.5593 60.5376 51.2123 61.4672 51.606 62.0112L52.3217 63L53.3212 62.9514L54.321 62.903V58.9457V54.9885L53.2998 54.9394L52.2787 54.8905L52.2636 56.2585C52.2551 57.0111 52.249 57.946 52.2498 58.3367C52.2518 59.3346 52.0916 59.2038 50.5624 56.9592L49.2196 54.9885L48.2511 54.9405C47.7185 54.9138 47.2304 54.9447 47.1668 55.0091ZM32.4908 58.2739C32.8035 59.5272 32.7572 59.6877 32.085 59.6877C31.6806 59.6877 31.5204 59.623 31.5741 59.4816C31.617 59.3682 31.7464 58.8515 31.8612 58.333C32.101 57.252 32.2328 57.2395 32.4908 58.2739ZM18.8292 58.5264C19.1022 59.6205 19.0811 59.6877 18.4611 59.6877C17.8384 59.6877 17.8167 59.6166 18.1066 58.5256C18.4317 57.3004 18.5233 57.3004 18.8292 58.5264Z" fill="#B32E1D"/>
</svg>
