<svg width="20" height="20" viewBox="0 0 20 20" fill="none" xmlns="http://www.w3.org/2000/svg">
<path d="M10 0C15.523 0 20 4.477 20 9.99999C20 15.523 15.523 20 10 20C8.23276 20.003 6.49659 19.5353 4.97001 18.645L0.00401545 20L1.35601 15.032C0.464974 13.5049 -0.00308162 11.768 1.52687e-05 9.99999C1.52687e-05 4.477 4.47701 0 10 0ZM6.59201 5.3L6.39201 5.308C6.2627 5.31691 6.13636 5.35087 6.02001 5.408C5.91159 5.46951 5.81257 5.54629 5.72601 5.636C5.60601 5.749 5.53801 5.847 5.46501 5.942C5.09513 6.4229 4.89598 7.01331 4.89901 7.61999C4.90101 8.10999 5.02901 8.58699 5.22901 9.03299C5.63801 9.93499 6.31101 10.89 7.19901 11.775C7.41301 11.988 7.62301 12.202 7.84901 12.401C8.95244 13.3724 10.2673 14.073 11.689 14.447L12.257 14.534C12.442 14.544 12.627 14.53 12.813 14.521C13.1042 14.5056 13.3885 14.4268 13.646 14.29C13.7769 14.2223 13.9046 14.1489 14.029 14.07C14.029 14.07 14.0713 14.0413 14.154 13.98C14.289 13.88 14.372 13.809 14.484 13.692C14.568 13.6053 14.638 13.5047 14.694 13.39C14.772 13.227 14.85 12.916 14.882 12.657C14.906 12.459 14.899 12.351 14.896 12.284C14.892 12.177 14.803 12.066 14.706 12.019L14.124 11.758C14.124 11.758 13.254 11.379 12.722 11.137C12.6663 11.1127 12.6067 11.0989 12.546 11.096C12.4776 11.0888 12.4084 11.0965 12.3432 11.1184C12.278 11.1403 12.2182 11.176 12.168 11.223C12.163 11.221 12.096 11.278 11.373 12.154C11.3315 12.2098 11.2743 12.2519 11.2088 12.275C11.1433 12.2982 11.0723 12.3013 11.005 12.284C10.9398 12.2666 10.876 12.2446 10.814 12.218C10.69 12.166 10.647 12.146 10.562 12.11C9.98788 11.8599 9.45645 11.5215 8.98701 11.107C8.86101 10.997 8.74401 10.877 8.62401 10.761C8.23062 10.3842 7.88776 9.95798 7.60401 9.49299L7.54501 9.39799C7.50327 9.33379 7.46905 9.26501 7.44301 9.19299C7.40501 9.04599 7.50401 8.92799 7.50401 8.92799C7.50401 8.92799 7.74701 8.66199 7.86001 8.51799C7.97001 8.37799 8.06301 8.24199 8.12301 8.14499C8.24101 7.95499 8.27801 7.75999 8.21601 7.60899C7.93601 6.92499 7.64668 6.24466 7.34801 5.568C7.28901 5.434 7.11401 5.338 6.95501 5.319C6.90101 5.31233 6.84701 5.307 6.79301 5.303C6.65874 5.29529 6.5241 5.29663 6.39001 5.307L6.59201 5.3Z" fill="#E4DDCB"/>
</svg>
