<svg width="24" height="9" viewBox="0 0 24 9" fill="none" xmlns="http://www.w3.org/2000/svg">
<path d="M22.405 2.27259C22.407 2.28938 22.415 2.29358 22.475 2.29253H23.2C23.3197 2.29292 23.438 2.26498 23.546 2.21079C23.6541 2.15661 23.7491 2.07756 23.824 1.97954C23.899 1.88151 23.9519 1.76702 23.9789 1.64456C24.0059 1.52211 24.0063 1.39485 23.98 1.27223C23.9375 1.06712 23.8229 0.886389 23.659 0.766129C23.4951 0.645869 23.2941 0.59494 23.096 0.623518C22.9036 0.649895 22.7271 0.749191 22.5996 0.902703C22.4722 1.05622 22.4026 1.25335 22.404 1.45698C22.404 1.563 22.402 2.15607 22.405 2.27259ZM10.8959 7.31952C10.6929 7.32057 9.54285 7.32372 9.21085 7.32267C8.95051 7.32072 8.69206 7.27609 8.44484 7.19041C8.439 7.18859 8.43272 7.18909 8.42719 7.1918C8.42167 7.1945 8.41728 7.19923 8.41484 7.2051L7.69984 8.83108C7.69724 8.83698 7.69683 8.84369 7.69868 8.84989C7.70053 8.8561 7.7045 8.86137 7.70984 8.86467C7.82084 8.92765 8.04584 8.99483 8.20484 8.99483C8.86485 9.00533 9.52485 8.99693 10.1859 8.99483C10.1972 8.99483 10.2049 8.98958 10.2089 8.97909L10.9209 7.35731C10.9228 7.35318 10.9237 7.34859 10.9234 7.344C10.9231 7.33941 10.9217 7.33498 10.9192 7.33115C10.9168 7.32732 10.9135 7.32423 10.9095 7.32219C10.9056 7.32015 10.9012 7.31923 10.8969 7.31952H10.8959ZM0.476778 2.30513C0.405777 2.30513 0.400777 2.30723 0.400777 2.31563L0.390777 2.3996C0.363777 2.81633 0.352777 2.9192 0.156775 5.61167C0.144775 5.86359 0.122775 6.02 0.0217743 6.24883C-0.00422594 6.30866 -0.011226 6.29292 0.0247743 6.3664C0.0707747 6.46297 0.70578 7.96508 0.811781 8.19286C0.819781 8.20861 0.822781 8.21386 0.828781 8.21386C0.836781 8.21386 0.861781 8.18657 0.875781 8.16767C1.02178 7.97033 1.14545 7.75829 1.24678 7.53156C1.55279 6.865 1.68679 6.14071 1.73279 5.74078C1.74679 5.62531 1.75379 5.50985 1.76279 5.39438L1.96679 2.64838L1.98879 2.34082C1.99179 2.31038 1.98879 2.30618 1.95879 2.30513H0.476778ZM7.67984 6.24883C7.5899 6.04975 7.54376 5.83199 7.54484 5.61167C7.54084 5.52349 7.51384 5.20229 7.30983 2.3996C7.30934 2.37062 7.30599 2.34178 7.29983 2.31353C7.29583 2.30198 7.24783 2.30513 7.22383 2.30513H5.74382C5.71382 2.30618 5.70982 2.31038 5.71382 2.34082L5.73482 2.64838C5.81082 3.67918 5.88849 4.70998 5.96782 5.74078C6.01782 6.16066 6.15382 6.8797 6.45483 7.53156C6.55783 7.75724 6.67783 7.97138 6.82483 8.16767C6.83983 8.18657 6.86183 8.22121 6.87283 8.21911C6.89283 8.21596 7.61484 6.49551 7.67684 6.3664C7.71284 6.29292 7.70684 6.30866 7.67984 6.24883ZM11.5409 5.29046H10.6689C10.6477 5.29068 10.6268 5.28529 10.6081 5.2748C10.5895 5.2643 10.5736 5.24904 10.5621 5.23042C10.5505 5.21179 10.5436 5.19042 10.542 5.16825C10.5404 5.14609 10.5441 5.12386 10.5529 5.10361L11.7309 2.34817C11.7325 2.34417 11.7332 2.33979 11.7329 2.33544C11.7325 2.33109 11.7311 2.32691 11.7289 2.32326C11.7266 2.31961 11.7235 2.31662 11.7198 2.31455C11.7161 2.31249 11.712 2.31141 11.7079 2.31143L10.3899 2.30828C10.365 2.30839 10.3405 2.30191 10.3186 2.28944C10.2967 2.27696 10.2782 2.25891 10.2648 2.23693C10.2513 2.21496 10.2433 2.18978 10.2416 2.16372C10.2399 2.13766 10.2444 2.11156 10.2549 2.08784L11.1309 0.0367393C11.1325 0.0327386 11.1332 0.0283656 11.1329 0.0240162C11.1325 0.0196669 11.1311 0.0154782 11.1288 0.0118303C11.1266 0.0081823 11.1234 0.00519024 11.1198 0.00312449C11.1161 0.00105874 11.112 -1.50638e-05 11.1079 1.59639e-07H9.54785C9.53652 1.59639e-07 9.52852 0.00524849 9.52385 0.0157454L8.59784 2.18651C8.51284 2.36391 8.28384 2.85202 8.19884 3.17113C8.1799 3.23597 8.1731 3.30406 8.17884 3.37162C8.18231 3.45272 8.20521 3.53159 8.24541 3.60095C8.28561 3.6703 8.34182 3.72789 8.40884 3.7684C8.55039 3.84823 8.70818 3.89108 8.86885 3.89332H9.45885C9.49985 3.89332 8.77085 5.44896 8.62484 5.96331C8.60721 6.02163 8.59943 6.08273 8.60184 6.14386C8.60289 6.22834 8.62459 6.31113 8.66487 6.38428C8.70514 6.45743 8.76264 6.5185 8.83185 6.56164C8.98185 6.65821 9.17385 6.6876 9.30685 6.6876L10.9669 6.68655C10.9782 6.68655 10.9859 6.6813 10.9899 6.67081L11.5649 5.3272C11.5666 5.32312 11.5673 5.31864 11.5669 5.31421C11.5665 5.30977 11.565 5.30551 11.5626 5.30184C11.5602 5.29816 11.5569 5.29519 11.5531 5.2932C11.5493 5.29121 11.5451 5.29026 11.5409 5.29046ZM4.61081 0.108118H3.0998C3.09535 0.107823 3.09088 0.108509 3.0867 0.110131C3.08251 0.111753 3.0787 0.114276 3.07549 0.117538C3.07229 0.1208 3.06978 0.124729 3.06811 0.129072C3.06644 0.133415 3.06565 0.138077 3.0658 0.142758C3.0658 1.24284 3.0558 3.07665 3.0558 7.31112C3.0558 7.61343 2.7868 7.58614 2.7758 7.58614H2.03579C1.99579 7.58719 1.99179 7.59034 1.99579 7.63548C1.99679 7.67432 2.46079 8.75235 2.5508 8.96124C2.5608 8.98223 2.5808 8.99588 2.6018 8.99588C2.7588 8.99903 3.3688 9.00533 3.5398 8.98119C3.6928 8.96019 3.83981 8.9182 3.97781 8.84263C4.27781 8.67887 4.46781 8.4028 4.57281 8.03961C4.62481 7.85906 4.64781 7.66907 4.64781 7.48012C4.64981 5.03433 4.64748 2.5882 4.64081 0.141709C4.64111 0.137217 4.64048 0.132712 4.63898 0.128496C4.63748 0.124279 4.63513 0.12045 4.6321 0.117267C4.62906 0.114083 4.62542 0.11162 4.6214 0.110041C4.61738 0.108463 4.61309 0.107807 4.60881 0.108118H4.61081ZM16.3949 7.34681C16.3936 7.33282 16.3856 7.32512 16.3709 7.32372H14.9059C14.8579 7.32267 14.8569 7.32162 14.8559 7.27228V2.38071C14.8559 2.30513 14.8509 2.30723 14.9259 2.30723H15.7889C15.8689 2.30723 15.8639 2.31143 15.8639 2.22955V0.712742C15.8639 0.626667 15.8699 0.632966 15.7839 0.632966H12.2839C12.2199 0.632966 12.2089 0.626668 12.2089 0.709594V2.2264C12.2089 2.31353 12.2029 2.30723 12.2889 2.30723H13.1429C13.2179 2.30723 13.2129 2.30303 13.2129 2.38071V7.23449C13.2129 7.33421 13.2209 7.32267 13.1279 7.32267C12.7579 7.32267 12.0179 7.32057 11.8239 7.32267C11.7759 7.32372 11.7639 7.35416 11.7639 7.35416L11.0669 8.94865C11.0669 8.94865 11.0529 8.97489 11.0589 8.98643C11.0649 8.99798 11.0719 8.99483 11.1169 8.99483C12.8649 8.99693 14.6126 8.99763 16.3599 8.99693C16.3899 8.99588 16.3939 8.99063 16.3949 8.96229V7.34681ZM20.5719 3.74636C20.5719 3.76105 20.5653 3.76945 20.5519 3.77155C20.2059 3.77785 19.8599 3.77575 19.5149 3.77575C19.5009 3.77365 19.4936 3.76525 19.4929 3.75056C19.4889 3.29499 19.4856 2.83907 19.4829 2.38281C19.4829 2.30723 19.4769 2.30828 19.5529 2.30933L20.2859 2.30618C20.3269 2.30618 20.3669 2.30828 20.4059 2.32192C20.4989 2.34817 20.5659 2.43424 20.5709 2.53606C20.5769 2.98848 20.5729 3.74636 20.5719 3.74636ZM23.242 4.00249C22.9693 3.85276 22.6667 3.7729 22.359 3.76945H22.179C22.139 3.7684 22.139 3.7663 22.137 3.72747V2.62004C22.1376 2.48148 22.1293 2.34362 22.112 2.20646C22.0885 2.01386 22.0369 1.82621 21.959 1.65012C21.8173 1.33042 21.5794 1.06853 21.2819 0.904837C20.9738 0.732552 20.631 0.63972 20.2819 0.634015C20.1289 0.630866 19.7149 0.634015 19.5619 0.634015C19.4919 0.634015 19.4939 0.638214 19.4939 0.565786V0.0482861C19.4939 0.0157456 19.4839 0.0052486 19.4479 0.00734799H17.9299C17.9299 0.00734799 17.9139 0.00734796 17.9069 0.0146958C17.9016 0.0202942 17.8989 0.0283416 17.8989 0.0388385V0.611972C17.8909 0.649761 17.8419 0.627717 17.8169 0.635065H16.8669C16.8449 0.637165 16.8389 0.643462 16.8369 0.668655V2.22325C16.8369 2.31773 16.8329 2.30933 16.9189 2.30933H17.8319C17.9139 2.30933 17.9039 2.44369 17.9039 2.44369V3.64874C17.9039 3.64874 17.9069 3.77155 17.8439 3.77155H16.3619C16.2939 3.77155 16.3019 3.85763 16.3019 3.85763V5.37443C16.3019 5.37443 16.2919 5.44582 16.3659 5.44582H17.8229C17.9049 5.44582 17.8989 5.43952 17.8989 5.52874V8.914C17.8989 9.00638 17.8919 8.99903 17.9809 8.99903H19.4109C19.5009 8.99903 19.4929 9.00638 19.4929 8.91506V5.48255C19.4929 5.45211 19.4989 5.44582 19.5259 5.44582L21.849 5.44267C21.9455 5.44351 22.0408 5.46531 22.129 5.5067C22.2084 5.54351 22.2763 5.60316 22.3248 5.67876C22.3732 5.75436 22.4004 5.84283 22.403 5.93392C22.411 6.34855 22.406 6.76318 22.406 7.17781C22.406 7.44968 22.299 7.56305 22.076 7.56305H20.8579C20.8349 7.56515 20.8289 7.57145 20.8299 7.59769C21.0139 8.05605 21.2039 8.51197 21.4 8.96544C21.4039 8.97313 21.4097 8.97965 21.4166 8.98442C21.4236 8.98918 21.4316 8.99204 21.44 8.99273C21.61 8.99798 21.78 8.99483 21.95 8.99588C22.1 8.99378 22.467 9.00008 22.616 8.98538C22.7542 8.97406 22.8909 8.94767 23.024 8.90666C23.614 8.71771 23.999 8.17397 24 7.52841V5.44896C24.0006 5.3153 23.9893 5.18234 23.966 5.05008C23.966 5.13196 23.937 4.37723 23.242 4.00249Z" fill="#B32E1D"/>
</svg>
